<?xml version="1.0" encoding="UTF-8"?>
<svg  xmlns="http://www.w3.org/2000/svg" xmlns:xlink="http://www.w3.org/1999/xlink" viewBox="0 0 300 300">
  <defs>
    <linearGradient id="left_cloud"  x1="199.61" y1="221.02" x2="155.27" y2="99.2" gradientUnits="userSpaceOnUse">
      <stop offset=".49" stop-color="#3aaaf9"/>
      <stop offset=".83" stop-color="#c947e7"/>
    </linearGradient>
    <linearGradient id="right_cloud_2"  x1="127.5" y1="198.22" x2="92.31" y2="101.54" xlink:href="#left_cloud"/>
  </defs>
  <path fill="url(#left_cloud)"  d="M167.62,210.76c-18.64,0-37.28,.03-55.93-.02-6.28-.02-6.74-.77-4.57-6.64,8.69-23.55,17.39-47.1,26.1-70.64,1.94-5.24,12.05-8.57,16.74-5.48,2.51,1.65,.98,3.8,.32,5.62-4.21,11.62-8.55,23.2-12.82,34.8-2.62,7.14-5.16,14.31-7.8,21.45-1.29,3.49-.18,4.96,3.51,4.95,29.86-.08,59.74,.32,89.59-.31,16.01-.34,28.94-15.98,27.02-30.86-2.43-18.89-17.47-30.81-34.74-27.75-4.63,.82-9.43,3.87-13.82,2.08-4.29-1.75-4.55-7.6-7.21-11.26-2.12-2.92-4.09-5.95-6.32-8.79-2.54-3.23-4.45-2.86-5.9,1.13-4.55,12.51-9.27,24.96-13.89,37.44-3.1,8.38-6.1,16.8-9.2,25.19-1.65,4.46-13.06,7.38-16.59,4.23-2.07-1.84-.64-3.94,.03-5.79,5.39-14.83,10.87-29.64,16.33-44.45,4.86-13.21,9.89-26.35,14.51-39.65,1.71-4.93,4.01-5.74,8.42-3.29,10.01,5.57,18.23,13.04,24.25,22.74,2.3,3.71,4.62,5.14,9.23,4.39,25.25-4.09,49.49,17.39,50.73,42.86,1.37,28.14-21.61,48.8-47.77,48.13-16.73-.43-33.48-.08-50.22-.08Z"/>
  <path fill="url(#right_cloud_2)" d="M150.45,84.95c1.71,0,3.44-.15,5.13,.02,13.53,1.38,12.39,1.42,7.7,13.56-1.03,2.66-2.84,3.83-5.8,3.31-24.11-4.25-48.8,11.34-55.78,37.3-.1,.37-.25,.72-.36,1.08q-2.86,8.75-11.86,7.21c-10.16-1.74-19.45-.39-26.43,8.05-5.97,7.22-7.19,15.45-3.81,24.11,3.32,8.49,9.89,13.23,18.78,14.88,4.05,.75,6.36-.87,7.73-4.79,2.88-8.26,6.06-16.42,9.17-24.6,1.61-4.23,13.99-7.14,17.29-4.11,1.45,1.33,.71,2.86,.21,4.23-5.12,13.93-10.29,27.84-15.47,41.74-.68,1.83-1.71,3.23-3.88,3.76-16.38,4.09-36.11-3.62-45.49-18.29-8.26-12.93-8.9-26.81-1.86-40.2,7.01-13.32,18.47-21.25,33.96-21.45,5.49-.07,7.77-2.12,10.1-6.87,12.3-25.08,32.43-38.47,60.66-38.96Z"/>
</svg>
