<?xml version="1.0" encoding="utf-8"?>
<!-- Generator: Adobe Illustrator 27.0.0, SVG Export Plug-In . SVG Version: 6.00 Build 0)  -->
<svg version="1.1"  xmlns="http://www.w3.org/2000/svg" xmlns:xlink="http://www.w3.org/1999/xlink" x="0px" y="0px"
	 viewBox="0 0 125.6 24.7" style="enable-background:new 0 0 125.6 24.7;" xml:space="preserve">
<style type="text/css">
	.st0{fill-rule:evenodd;clip-rule:evenodd;fill:url(#SVGID_1_);}
	.st1{fill:url(#SVGID_00000014622784966148774550000009235673863891111837_);}
	.st2{fill:url(#SVGID_00000142143269235379407040000008698989266629102761_);}
	.st3{fill:url(#SVGID_00000050620467774350993410000014287304538969740456_);}
	.st4{fill:url(#SVGID_00000019638106674472299660000004620289989668050838_);}
	.st5{fill:url(#SVGID_00000018949697958374640580000005676274188150874764_);}
	.st6{fill:url(#SVGID_00000090997418694440995570000011884508843236768145_);}
	.st7{fill:url(#SVGID_00000152223043421291685140000014417252878986849945_);}
	.st8{fill:url(#SVGID_00000134220266004957693850000001349058230841724075_);}
</style>
<linearGradient id="SVGID_1_" gradientUnits="userSpaceOnUse" x1="4.712818e-02" y1="-36.8055" x2="26.6319" y2="-36.8055" gradientTransform="matrix(1 0 0 1 0 47.7055)">
	<stop  offset="0" style="stop-color:#F926E1"/>
	<stop  offset="0.1" style="stop-color:#EF2CE2"/>
	<stop  offset="0.26" style="stop-color:#D63EE5"/>
	<stop  offset="0.47" style="stop-color:#AC5AEA"/>
	<stop  offset="0.72" style="stop-color:#7282F1"/>
	<stop  offset="1" style="stop-color:#2AB5FB"/>
</linearGradient>
<path class="st0" d="M24.1,21.5c1.6-2.3,2.5-5,2.5-7.9c0-7.4-5.9-13.3-13.3-13.3S0.1,6.3,0.1,13.6c0,2.8,0.9,5.5,2.5,7.9L9,11.1
	l2.3,4l-0.6-3l2.7-4.6l4.4,7.5l-0.6-2.9l0.6-1L24.1,21.5L24.1,21.5z"/>
<g>
	<g>
		
			<linearGradient id="SVGID_00000031176849893615834160000000074694994699859341_" gradientUnits="userSpaceOnUse" x1="27.3302" y1="14.4906" x2="137.8011" y2="14.4906" gradientTransform="matrix(1 0 0 -1 0 26)">
			<stop  offset="0" style="stop-color:#F926E1"/>
			<stop  offset="0.1" style="stop-color:#EF2CE2"/>
			<stop  offset="0.26" style="stop-color:#D63EE5"/>
			<stop  offset="0.47" style="stop-color:#AC5AEA"/>
			<stop  offset="0.72" style="stop-color:#7282F1"/>
			<stop  offset="1" style="stop-color:#2AB5FB"/>
		</linearGradient>
		<path style="fill:url(#SVGID_00000031176849893615834160000000074694994699859341_);" d="M36.5,17c0,0.4-0.1,0.6-0.3,0.7
			C36,17.9,35.6,18,35.2,18h-2.1c-0.4,0-0.6-0.1-0.7-0.3c-0.2-0.2-0.3-0.4-0.3-0.7c0-0.3,0.1-0.5,0.2-0.6c0.1-0.2,0.3-0.3,0.4-0.4
			c0.1-0.1,0.3-0.2,0.4-0.4c0.1-0.2,0.2-0.4,0.2-0.6l0.5-6.8V8c0-0.2-0.1-0.4-0.2-0.6s-0.2-0.2-0.3-0.3c-0.1-0.1-0.3-0.2-0.4-0.4
			c-0.1-0.2-0.2-0.3-0.2-0.6c0-0.4,0.1-0.6,0.3-0.7C33.1,5.1,33.4,5,33.7,5H37c0.6,0,1.1,0.2,1.5,0.6c0.4,0.4,0.6,0.7,0.7,1.4
			l1.5,4.5l1.5-4.5c0.2-0.6,0.4-1.1,0.8-1.4C43.5,5.2,43.8,5,44.6,5h3.3c0.4,0,0.6,0.1,0.7,0.3C48.8,5.5,49,5.7,49,6
			c0,0.3-0.1,0.5-0.2,0.6c-0.1,0.2-0.3,0.3-0.5,0.4c-0.2,0.1-0.3,0.2-0.5,0.3c-0.2,0.1-0.2,0.3-0.2,0.5l0,0l0.4,6.9
			c0,0.3,0.1,0.5,0.2,0.6c0.1,0.2,0.3,0.3,0.4,0.3s0.3,0.2,0.4,0.3c0.1,0.1,0.2,0.4,0.2,0.6c0,0.4-0.1,0.6-0.3,0.7
			c-0.2,0.2-0.5,0.3-0.9,0.3h-4.7c-0.4,0-0.6-0.1-0.7-0.3c-0.2-0.2-0.3-0.4-0.3-0.7c0-0.3,0.1-0.5,0.2-0.6c0.1-0.2,0.3-0.3,0.5-0.4
			s0.3-0.2,0.5-0.3c0.2-0.1,0.2-0.3,0.2-0.5v-0.1l-0.3-4.4l-1.9,5.4c-0.1,0.3-0.2,0.6-0.4,0.7c-0.2,0.2-0.3,0.5-0.5,0.6
			c-0.2,0.2-0.5,0.6-0.9,0.6s-0.7-0.1-1-0.2c-0.2-0.1-0.4-0.4-0.6-0.7c-0.1-0.3-0.3-0.5-0.4-0.7l-1.9-5.4L35.2,15v0.1
			c0,0.2,0.1,0.4,0.2,0.5c0.1,0.1,0.2,0.3,0.4,0.4c0.2,0.1,0.3,0.3,0.4,0.4C36.5,16.4,36.5,16.7,36.5,17z"/>
		
			<linearGradient id="SVGID_00000069383814969177801200000007157878803748113054_" gradientUnits="userSpaceOnUse" x1="27.3302" y1="12.8254" x2="137.8011" y2="12.8254" gradientTransform="matrix(1 0 0 -1 0 26)">
			<stop  offset="0" style="stop-color:#F926E1"/>
			<stop  offset="0.1" style="stop-color:#EF2CE2"/>
			<stop  offset="0.26" style="stop-color:#D63EE5"/>
			<stop  offset="0.47" style="stop-color:#AC5AEA"/>
			<stop  offset="0.72" style="stop-color:#7282F1"/>
			<stop  offset="1" style="stop-color:#2AB5FB"/>
		</linearGradient>
		<path style="fill:url(#SVGID_00000069383814969177801200000007157878803748113054_);" d="M55.1,8.1c1.1,0,1.9,0.2,2.7,0.6
			c0.7,0.4,1.4,1.1,1.8,1.8c0.5,0.7,0.6,1.6,0.6,2.7s-0.2,1.9-0.7,2.7c-0.5,0.7-1.1,1.4-1.9,1.7c-0.7,0.4-1.7,0.6-2.7,0.6
			c-1.1,0-1.9-0.2-2.7-0.6s-1.4-1.1-1.8-1.8c-0.5-0.7-0.6-1.7-0.6-2.7c0-1.1,0.3-1.9,0.7-2.7c0.4-0.7,1.1-1.4,1.9-1.7
			C53.2,8.4,54.1,8.1,55.1,8.1z M55.6,16.3c0.2,0,0.3-0.1,0.3-0.3c0-0.2,0.1-0.4,0.1-0.6s0-0.4,0-0.5c0-0.4,0-0.6-0.1-1.1
			c-0.1-0.4-0.1-0.6-0.2-1.1c0-0.1-0.1-0.4-0.2-0.6c-0.1-0.3-0.2-0.6-0.3-1c-0.1-0.4-0.3-0.6-0.4-0.7c-0.1-0.2-0.3-0.2-0.4-0.2
			c-0.1,0-0.3,0.1-0.3,0.3c-0.1,0.2-0.1,0.4-0.1,0.6c0,0.2,0,0.4,0,0.5c0,0.2,0,0.5,0.1,0.7c0.1,0.2,0.1,0.7,0.2,1.2
			c0.1,0.5,0.2,0.9,0.4,1.4c0.2,0.5,0.3,0.7,0.5,1.1C55.4,16.3,55.4,16.3,55.6,16.3z"/>
		
			<linearGradient id="SVGID_00000097466032955404531660000003027759999961139600_" gradientUnits="userSpaceOnUse" x1="27.3302" y1="12.9574" x2="137.8011" y2="12.9574" gradientTransform="matrix(1 0 0 -1 0 26)">
			<stop  offset="0" style="stop-color:#F926E1"/>
			<stop  offset="0.1" style="stop-color:#EF2CE2"/>
			<stop  offset="0.26" style="stop-color:#D63EE5"/>
			<stop  offset="0.47" style="stop-color:#AC5AEA"/>
			<stop  offset="0.72" style="stop-color:#7282F1"/>
			<stop  offset="1" style="stop-color:#2AB5FB"/>
		</linearGradient>
		<path style="fill:url(#SVGID_00000097466032955404531660000003027759999961139600_);" d="M65.6,8.1c0.3,0,0.5,0.1,0.6,0.3
			c0.1,0.2,0.2,0.4,0.2,0.6v0.9C66.8,9.4,67.4,9,68,8.7c0.6-0.4,1.1-0.6,1.7-0.6s1.1,0.2,1.5,0.5c0.4,0.2,0.7,0.6,0.9,1.1
			c0.2,0.5,0.3,1,0.3,1.5v4c0,0.2,0,0.4,0,0.5s0.1,0.3,0.2,0.5s0.3,0.3,0.4,0.4c0.1,0.1,0.2,0.3,0.2,0.6c0,0.3-0.1,0.5-0.3,0.6
			C72.7,18,72.4,18,72.2,18h-4c-0.3,0-0.5-0.1-0.6-0.2c-0.1-0.1-0.2-0.4-0.2-0.6s0.1-0.4,0.2-0.6s0.2-0.3,0.3-0.4
			c0.1-0.1,0.2-0.4,0.2-0.6v-3.2c0-0.3-0.1-0.6-0.2-0.9c-0.1-0.3-0.4-0.4-0.6-0.4c-0.2,0-0.4,0-0.6,0.1s-0.3,0.2-0.5,0.3v3.8
			c0,0.2,0,0.4,0,0.5c0,0.1,0.1,0.3,0.2,0.5c0.1,0.2,0.3,0.3,0.3,0.4c0,0.1,0.1,0.3,0.1,0.5c0,0.3-0.1,0.5-0.2,0.6
			c-0.1,0.1-0.4,0.2-0.6,0.2h-3.7c-0.3,0-0.5-0.1-0.6-0.2c-0.2-0.1-0.3-0.3-0.3-0.6c0-0.2,0-0.4,0.1-0.5c0.1-0.1,0.2-0.2,0.3-0.3
			c0.1-0.1,0.2-0.2,0.3-0.4c0.1-0.2,0.1-0.4,0.1-0.6V12c0-0.3,0-0.5-0.1-0.6C62,11.2,62,11.1,61.8,11c-0.1-0.1-0.2-0.2-0.3-0.3
			c-0.1-0.1-0.1-0.3-0.1-0.5c0-0.3,0.1-0.5,0.3-0.6c0.2-0.1,0.4-0.3,0.6-0.3l2-0.7c0.2-0.1,0.5-0.2,0.7-0.3
			C65.3,8.1,65.3,8.1,65.6,8.1z"/>
		
			<linearGradient id="SVGID_00000102534775939378039490000012815096862572398270_" gradientUnits="userSpaceOnUse" x1="27.3302" y1="14.0032" x2="137.8011" y2="14.0032" gradientTransform="matrix(1 0 0 -1 0 26)">
			<stop  offset="0" style="stop-color:#F926E1"/>
			<stop  offset="0.1" style="stop-color:#EF2CE2"/>
			<stop  offset="0.26" style="stop-color:#D63EE5"/>
			<stop  offset="0.47" style="stop-color:#AC5AEA"/>
			<stop  offset="0.72" style="stop-color:#7282F1"/>
			<stop  offset="1" style="stop-color:#2AB5FB"/>
		</linearGradient>
		<path style="fill:url(#SVGID_00000102534775939378039490000012815096862572398270_);" d="M78.5,18.4c-1.1,0-1.9-0.3-2.5-0.7
			c-0.6-0.5-1-1.4-1-2.4v-4.1c0-0.3-0.1-0.5-0.2-0.6c-0.1-0.1-0.3-0.2-0.4-0.3c-0.1-0.2-0.2-0.2-0.3-0.2c-0.1-0.1-0.2-0.5-0.2-0.7
			s0.1-0.5,0.3-0.6c0.2-0.1,0.4-0.2,0.6-0.2h0.4c0.2,0,0.4-0.1,0.6-0.3C76,8,76.3,7.8,76.4,7.6C76.6,7.2,76.8,7,77,6.7
			c0.2-0.3,0.3-0.6,0.6-0.7c0.3-0.2,0.5-0.3,0.7-0.3s0.6,0.1,0.7,0.3c0.2,0.2,0.3,0.4,0.3,0.7v1.7h2.1c0.2,0,0.5,0.1,0.6,0.2
			c0.1,0.1,0.3,0.3,0.3,0.6c0,0.4-0.1,0.6-0.3,0.7c-0.2,0.2-0.5,0.3-0.7,0.4c-0.3,0.1-0.6,0.1-0.9,0.1h-1v3.7c0,0.3,0.1,0.6,0.2,0.9
			c0.1,0.3,0.4,0.4,0.7,0.4s0.5-0.1,0.6-0.2c0.1-0.1,0.3-0.3,0.5-0.4c0.2-0.1,0.3-0.2,0.5-0.2c0.2,0,0.3,0.1,0.4,0.2
			c0.1,0.1,0.1,0.3,0.1,0.4c0,0.6-0.2,1.1-0.6,1.6c-0.4,0.5-0.9,0.9-1.5,1.1C79.9,18.1,79.1,18.4,78.5,18.4z"/>
		
			<linearGradient id="SVGID_00000011006524466189746590000009395930891976100270_" gradientUnits="userSpaceOnUse" x1="27.3302" y1="11.1068" x2="137.8011" y2="11.1068" gradientTransform="matrix(1 0 0 -1 0 26)">
			<stop  offset="0" style="stop-color:#F926E1"/>
			<stop  offset="0.1" style="stop-color:#EF2CE2"/>
			<stop  offset="0.26" style="stop-color:#D63EE5"/>
			<stop  offset="0.47" style="stop-color:#AC5AEA"/>
			<stop  offset="0.72" style="stop-color:#7282F1"/>
			<stop  offset="1" style="stop-color:#2AB5FB"/>
		</linearGradient>
		<path style="fill:url(#SVGID_00000011006524466189746590000009395930891976100270_);" d="M87.2,8.1c0.4,0,0.6,0.1,0.6,0.4
			C88,8.9,88,9.1,88,9.4v0.1c0.4-0.4,0.7-0.6,1.2-1c0.5-0.3,1.1-0.4,1.6-0.4c0.6,0,1.2,0.1,1.7,0.4c0.5,0.3,0.9,0.6,1.2,1.1
			c0.4,0.4,0.6,1,0.7,1.5c0.2,0.6,0.3,1.1,0.3,1.7c0,1-0.2,1.8-0.6,2.7c-0.4,0.9-1,1.5-1.6,2c-0.6,0.6-1.6,0.7-2.6,0.7
			c-0.6,0-1.2-0.1-1.7-0.4v1.1c0,0.2,0,0.4,0,0.5c0,0.1,0.1,0.2,0.1,0.3c0,0.1,0.2,0.2,0.3,0.4c0.1,0.1,0.2,0.2,0.3,0.4
			c0.1,0.2,0.1,0.3,0.1,0.4c0,0.3-0.1,0.5-0.3,0.6c-0.1,0.2-0.2,0.2-0.6,0.2h-4.1c-0.3,0-0.5-0.1-0.6-0.2s-0.3-0.4-0.3-0.6
			c0-0.2,0-0.4,0.1-0.5c0.1-0.1,0.2-0.2,0.3-0.3c0.1-0.1,0.2-0.2,0.3-0.4c0.1-0.2,0.1-0.4,0.1-0.6v-7.2c0-0.3,0-0.5-0.1-0.6
			s-0.2-0.3-0.3-0.3c-0.1,0-0.2-0.2-0.3-0.3c-0.1-0.1-0.1-0.3-0.1-0.5c0-0.2,0.1-0.4,0.3-0.6c0.2-0.2,0.4-0.3,0.6-0.4l1.8-0.7
			c0.2-0.1,0.5-0.2,0.7-0.3S87,8.1,87.2,8.1z M88.9,10.6c-0.3,0-0.5,0.1-0.7,0.3v5c0.1,0.1,0.3,0.2,0.4,0.3c0.1,0.1,0.3,0.1,0.5,0.1
			c0.3,0,0.6-0.1,0.7-0.3c0.2-0.2,0.3-0.5,0.4-0.7c0.1-0.3,0.2-0.6,0.2-1c0-0.4,0-0.6,0-0.7c0-0.3,0-0.5-0.1-0.9s-0.1-0.6-0.2-1
			s-0.3-0.6-0.5-0.7C89.5,10.8,89.3,10.6,88.9,10.6z"/>
		
			<linearGradient id="SVGID_00000162318007760426114520000002876525704484883348_" gradientUnits="userSpaceOnUse" x1="27.3302" y1="14.978" x2="137.8011" y2="14.978" gradientTransform="matrix(1 0 0 -1 0 26)">
			<stop  offset="0" style="stop-color:#F926E1"/>
			<stop  offset="0.1" style="stop-color:#EF2CE2"/>
			<stop  offset="0.26" style="stop-color:#D63EE5"/>
			<stop  offset="0.47" style="stop-color:#AC5AEA"/>
			<stop  offset="0.72" style="stop-color:#7282F1"/>
			<stop  offset="1" style="stop-color:#2AB5FB"/>
		</linearGradient>
		<path style="fill:url(#SVGID_00000162318007760426114520000002876525704484883348_);" d="M100.3,3.9c0.3,0,0.5,0.1,0.6,0.3
			c0.1,0.2,0.2,0.4,0.2,0.6v10.4c0,0.2,0,0.4,0,0.6s0.1,0.3,0.2,0.5c0.2,0.2,0.3,0.3,0.5,0.4c0.2,0.1,0.2,0.3,0.2,0.6
			c0,0.3-0.1,0.5-0.3,0.6c-0.2,0.2-0.4,0.2-0.6,0.2h-4.1c-0.3,0-0.5-0.1-0.6-0.2c-0.2-0.1-0.3-0.4-0.3-0.6c0-0.2,0-0.4,0.1-0.5
			c0.1-0.1,0.2-0.2,0.3-0.3c0.1-0.1,0.2-0.2,0.3-0.4c0.1-0.2,0.1-0.4,0.1-0.6V7.9c0-0.3-0.1-0.5-0.2-0.6c-0.1-0.2-0.2-0.3-0.4-0.3
			s-0.3-0.2-0.4-0.3c-0.1-0.1-0.2-0.3-0.2-0.5c0-0.3,0.1-0.5,0.3-0.6c0.2-0.1,0.4-0.3,0.6-0.3l2.1-0.7c0.3-0.1,0.5-0.2,0.7-0.3
			C99.7,4.1,100.1,3.9,100.3,3.9z"/>
		
			<linearGradient id="SVGID_00000165956351307222537170000008923765246014210452_" gradientUnits="userSpaceOnUse" x1="27.3302" y1="12.7441" x2="137.8011" y2="12.7441" gradientTransform="matrix(1 0 0 -1 0 26)">
			<stop  offset="0" style="stop-color:#F926E1"/>
			<stop  offset="0.1" style="stop-color:#EF2CE2"/>
			<stop  offset="0.26" style="stop-color:#D63EE5"/>
			<stop  offset="0.47" style="stop-color:#AC5AEA"/>
			<stop  offset="0.72" style="stop-color:#7282F1"/>
			<stop  offset="1" style="stop-color:#2AB5FB"/>
		</linearGradient>
		<path style="fill:url(#SVGID_00000165956351307222537170000008923765246014210452_);" d="M112.2,11.8c0,0.6-0.2,1-0.5,1.2
			s-0.7,0.4-1.4,0.4h-3.7c0.1,0.6,0.4,1,0.7,1.4c0.4,0.4,0.9,0.6,1.6,0.6c0.3,0,0.6-0.1,0.9-0.2c0.3-0.1,0.5-0.3,0.7-0.4
			s0.5-0.3,0.6-0.4c0.2-0.1,0.3-0.2,0.4-0.2c0.2,0,0.3,0.1,0.4,0.2c0.1,0.1,0.1,0.3,0.1,0.5c0,0.6-0.1,1.1-0.4,1.5
			c-0.3,0.5-0.6,0.7-1.1,1.1c-0.5,0.3-0.9,0.5-1.5,0.6c-0.6,0.2-1.1,0.2-1.5,0.2c-1,0-1.8-0.2-2.6-0.6c-0.7-0.4-1.4-1-1.7-1.7
			c-0.4-0.7-0.6-1.6-0.6-2.6c0-1.1,0.2-2,0.6-2.8c0.4-0.7,1-1.5,1.7-1.8c0.7-0.4,1.7-0.6,2.8-0.6c0.7,0,1.5,0.1,2.1,0.4
			s1.1,0.6,1.6,1.2C112,10.3,112.2,11.1,112.2,11.8z M106.5,12.1c0,0.1,0,0.1,0,0.2h1c0.2,0,0.4-0.1,0.5-0.2
			c0.1-0.1,0.1-0.3,0.1-0.5c0-0.2,0-0.4-0.1-0.6c-0.1-0.2-0.1-0.5-0.2-0.6s-0.3-0.3-0.5-0.3c-0.2,0-0.4,0.1-0.5,0.2
			c-0.1,0.2-0.2,0.4-0.3,0.6c-0.1,0.2-0.1,0.5-0.1,0.6C106.4,11.7,106.5,11.9,106.5,12.1z"/>
		
			<linearGradient id="SVGID_00000114042469227415027710000000589184719544308903_" gradientUnits="userSpaceOnUse" x1="27.3302" y1="12.866" x2="137.8011" y2="12.866" gradientTransform="matrix(1 0 0 -1 0 26)">
			<stop  offset="0" style="stop-color:#F926E1"/>
			<stop  offset="0.1" style="stop-color:#EF2CE2"/>
			<stop  offset="0.26" style="stop-color:#D63EE5"/>
			<stop  offset="0.47" style="stop-color:#AC5AEA"/>
			<stop  offset="0.72" style="stop-color:#7282F1"/>
			<stop  offset="1" style="stop-color:#2AB5FB"/>
		</linearGradient>
		<path style="fill:url(#SVGID_00000114042469227415027710000000589184719544308903_);" d="M119.1,10.3c0,0.1,0,0.2,0.1,0.2
			s0.1,0.1,0.1,0.2c0.3,0.4,0.5,0.6,0.7,1.1l0.4-0.5c0.1-0.1,0.1-0.2,0.2-0.3c0.1-0.1,0.1-0.2,0.1-0.4c0-0.2-0.1-0.3-0.2-0.4
			c-0.1-0.1-0.3-0.3-0.4-0.4s-0.2-0.3-0.2-0.6c0-0.3,0.1-0.5,0.3-0.6c0.2-0.2,0.4-0.2,0.6-0.2h2.2c0.3,0,0.5,0.1,0.6,0.2
			c0.2,0.1,0.3,0.4,0.3,0.6c0,0.2-0.1,0.4-0.2,0.6s-0.3,0.3-0.4,0.4c-0.5,0.4-1,0.9-1.4,1.4c-0.4,0.5-0.7,1-1.1,1.5
			c0.5,0.6,1,1.1,1.5,1.8c0.5,0.6,1,1.1,1.5,1.7c0.1,0.1,0.2,0.2,0.2,0.3c0,0.1,0.1,0.2,0.1,0.4c0,0.3-0.1,0.5-0.3,0.6
			c-0.2,0.2-0.4,0.2-0.6,0.2h-4.6c-0.3,0-0.5-0.1-0.6-0.2c-0.2-0.1-0.3-0.4-0.3-0.6c0-0.2,0.1-0.4,0.2-0.6c0.1-0.3,0.2-0.4,0.2-0.4
			s-0.1-0.2-0.3-0.5c-0.2-0.3-0.5-0.6-0.7-1.1c-0.1,0.2-0.2,0.3-0.3,0.4l0,0c-0.1,0.1-0.2,0.2-0.3,0.4c-0.1,0.2-0.1,0.3-0.1,0.4
			c0,0.1,0.1,0.3,0.2,0.4c0.1,0.1,0.3,0.3,0.4,0.4c0.1,0.1,0.2,0.4,0.2,0.6c0,0.3-0.1,0.5-0.3,0.6c-0.2,0.2-0.4,0.2-0.6,0.2h-2.3
			c-0.3,0-0.5-0.1-0.6-0.2c-0.2-0.1-0.3-0.4-0.3-0.6c0-0.2,0.1-0.5,0.2-0.6c0.1-0.1,0.3-0.3,0.5-0.4c0.5-0.4,1-0.7,1.4-1.4
			c0.4-0.6,0.6-1,1.1-1.5c-0.4-0.5-0.6-1-1.1-1.5c-0.4-0.5-0.5-0.6-0.6-0.7c-0.1-0.2-0.3-0.3-0.5-0.5c-0.2-0.2-0.3-0.3-0.5-0.5
			c-0.1-0.1-0.3-0.3-0.4-0.4s-0.1-0.3-0.1-0.5c0-0.3,0.1-0.5,0.3-0.6c0.2-0.2,0.4-0.2,0.6-0.2h4.6c0.3,0,0.5,0.1,0.6,0.2
			c0.2,0.1,0.3,0.4,0.3,0.6c0,0.2-0.1,0.4-0.2,0.6C119.1,10,119.1,10.2,119.1,10.3z"/>
	</g>
</g>
</svg>
