<?xml version="1.0" encoding="utf-8"?>
<!-- Generator: Adobe Illustrator 27.0.0, SVG Export Plug-In . SVG Version: 6.00 Build 0)  -->
<svg version="1.1" id="_图层_1" xmlns="http://www.w3.org/2000/svg" xmlns:xlink="http://www.w3.org/1999/xlink" x="0px" y="0px"
	 viewBox="0 0 116.9 24.7" style="enable-background:new 0 0 116.9 24.7;" xml:space="preserve">
<style type="text/css">
	.st0{fill:url(#SVGID_1_);}
	.st1{fill:url(#SVGID_00000008859256860718459160000009291450140536400257_);}
	.st2{fill:url(#SVGID_00000043453984957133088260000004089959931466456458_);}
	.st3{fill:url(#SVGID_00000103948775856015693100000013793811933167010976_);}
	.st4{fill:url(#SVGID_00000169551446949001437740000016605426393701210546_);}
	.st5{fill:url(#SVGID_00000066475394094319620910000002086998560362044306_);}
	.st6{fill:url(#SVGID_00000116941881246322121360000014547009211885867959_);}
	.st7{fill:url(#SVGID_00000021798980034900194320000015977756482734730657_);}
</style>
<g>
	<g>
		
			<linearGradient id="SVGID_1_" gradientUnits="userSpaceOnUse" x1="-4.1328" y1="15.1054" x2="132.7327" y2="15.1054" gradientTransform="matrix(1 0 0 -1 0 26)">
			<stop  offset="0" style="stop-color:#F926E1"/>
			<stop  offset="0.1" style="stop-color:#EF2CE2"/>
			<stop  offset="0.26" style="stop-color:#D63EE5"/>
			<stop  offset="0.47" style="stop-color:#AC5AEA"/>
			<stop  offset="0.72" style="stop-color:#7282F1"/>
			<stop  offset="1" style="stop-color:#2AB5FB"/>
		</linearGradient>
		<path class="st0" d="M7.2,17.7c0,0.5-0.1,0.7-0.4,0.9C6.6,18.8,6.2,19,5.7,19H3c-0.5,0-0.7-0.1-0.9-0.4c-0.2-0.2-0.4-0.5-0.4-0.9
			s0.1-0.6,0.2-0.8c0.1-0.2,0.4-0.4,0.5-0.5c0.1-0.1,0.4-0.2,0.5-0.5c0.1-0.2,0.2-0.5,0.2-0.8l0.6-8.5V6.5c0-0.2-0.1-0.5-0.2-0.7
			C3.4,5.6,3.2,5.5,3.1,5.4C3,5.3,2.7,5.2,2.6,4.9S2.4,4.5,2.4,4.1c0-0.5,0.1-0.7,0.4-0.9C3,3,3.4,2.8,3.7,2.8h4.1
			c0.8,0,1.3,0.2,1.8,0.7c0.5,0.5,0.7,0.9,0.9,1.7l1.9,5.6l1.9-5.6c0.3-0.7,0.5-1.3,1-1.7s0.9-0.7,1.8-0.7h4.1
			c0.5,0,0.7,0.1,0.9,0.4c0.2,0.2,0.4,0.5,0.4,0.9s-0.1,0.6-0.2,0.8c-0.1,0.2-0.4,0.4-0.6,0.5c-0.3,0.1-0.4,0.3-0.6,0.4
			c-0.2,0.1-0.2,0.4-0.2,0.6l0,0l0.5,8.6c0,0.4,0.1,0.6,0.2,0.8c0.1,0.2,0.4,0.4,0.5,0.4s0.4,0.2,0.5,0.4c0.1,0.1,0.2,0.5,0.2,0.8
			c0,0.5-0.1,0.7-0.4,0.9c-0.2,0.2-0.6,0.4-1.1,0.4h-5.8c-0.5,0-0.7-0.1-0.9-0.4c-0.2-0.2-0.4-0.5-0.4-0.9s0.1-0.6,0.2-0.8
			c0.1-0.2,0.4-0.4,0.6-0.5c0.2-0.1,0.4-0.2,0.6-0.4c0.2-0.1,0.2-0.4,0.2-0.6V15l-0.4-5.4l-2.4,6.7c-0.1,0.4-0.2,0.7-0.5,0.9
			c-0.2,0.2-0.4,0.6-0.6,0.8c-0.2,0.2-0.6,0.7-1.1,0.7c-0.5,0-0.9-0.1-1.2-0.2C9.5,18.4,9.2,18,9,17.6c-0.1-0.4-0.4-0.6-0.5-0.9
			L6.1,9.9l-0.4,5.3v0.1c0,0.2,0.1,0.5,0.2,0.6c0.1,0.1,0.2,0.4,0.5,0.5c0.2,0.1,0.4,0.4,0.5,0.5C7.3,17,7.2,17.4,7.2,17.7z"/>
		
			<linearGradient id="SVGID_00000082332109246212072290000010187435477258858143_" gradientUnits="userSpaceOnUse" x1="-4.1328" y1="13.0422" x2="132.7327" y2="13.0422" gradientTransform="matrix(1 0 0 -1 0 26)">
			<stop  offset="0" style="stop-color:#F926E1"/>
			<stop  offset="0.1" style="stop-color:#EF2CE2"/>
			<stop  offset="0.26" style="stop-color:#D63EE5"/>
			<stop  offset="0.47" style="stop-color:#AC5AEA"/>
			<stop  offset="0.72" style="stop-color:#7282F1"/>
			<stop  offset="1" style="stop-color:#2AB5FB"/>
		</linearGradient>
		<path style="fill:url(#SVGID_00000082332109246212072290000010187435477258858143_);" d="M30.3,6.7c1.3,0,2.4,0.3,3.3,0.8
			s1.7,1.3,2.2,2.2c0.6,0.9,0.8,2,0.8,3.3s-0.2,2.4-0.9,3.3c-0.6,0.9-1.4,1.7-2.4,2.1c-0.9,0.5-2.1,0.7-3.3,0.7
			c-1.3,0-2.4-0.2-3.3-0.8c-0.9-0.6-1.7-1.3-2.2-2.2c-0.6-0.9-0.8-2.1-0.8-3.3c0-1.3,0.4-2.4,0.9-3.3S26,7.8,27,7.4
			C27.9,7,29,6.7,30.3,6.7z M30.9,16.8c0.2,0,0.4-0.1,0.4-0.4c0-0.2,0.1-0.5,0.1-0.7s0-0.5,0-0.6c0-0.5,0-0.8-0.1-1.3
			c-0.1-0.5-0.1-0.8-0.2-1.3c0-0.1-0.1-0.5-0.2-0.8c-0.1-0.4-0.2-0.7-0.4-1.2c-0.1-0.5-0.4-0.7-0.5-0.9c-0.1-0.2-0.4-0.2-0.5-0.2
			s-0.4,0.1-0.4,0.4C29,9.9,29,10.2,29,10.4c0,0.2,0,0.5,0,0.6c0,0.2,0,0.6,0.1,0.9c0.1,0.3,0.1,0.9,0.2,1.5
			c0.1,0.6,0.2,1.1,0.5,1.7c0.2,0.6,0.4,0.9,0.6,1.3C30.6,16.8,30.6,16.8,30.9,16.8z"/>
		
			<linearGradient id="SVGID_00000163040785351682127230000003140716305009810607_" gradientUnits="userSpaceOnUse" x1="-4.1328" y1="13.2058" x2="132.7327" y2="13.2058" gradientTransform="matrix(1 0 0 -1 0 26)">
			<stop  offset="0" style="stop-color:#F926E1"/>
			<stop  offset="0.1" style="stop-color:#EF2CE2"/>
			<stop  offset="0.26" style="stop-color:#D63EE5"/>
			<stop  offset="0.47" style="stop-color:#AC5AEA"/>
			<stop  offset="0.72" style="stop-color:#7282F1"/>
			<stop  offset="1" style="stop-color:#2AB5FB"/>
		</linearGradient>
		<path style="fill:url(#SVGID_00000163040785351682127230000003140716305009810607_);" d="M43.3,6.7c0.4,0,0.6,0.1,0.7,0.4
			c0.1,0.2,0.2,0.5,0.2,0.7v1.1c0.6-0.6,1.3-1.1,2-1.5c0.7-0.5,1.4-0.7,2.1-0.7s1.4,0.2,1.9,0.6c0.5,0.2,0.9,0.7,1.1,1.3
			c0.3,0.6,0.4,1.2,0.4,1.9v4.9c0,0.2,0,0.5,0,0.6c0,0.1,0.1,0.4,0.2,0.6c0.1,0.2,0.4,0.4,0.5,0.5s0.2,0.4,0.2,0.7
			c0,0.4-0.1,0.6-0.4,0.8c-0.2,0.2-0.5,0.2-0.8,0.2h-4.9c-0.4,0-0.6-0.1-0.7-0.2c-0.1-0.1-0.2-0.5-0.2-0.7s0.1-0.5,0.2-0.7
			c0.1-0.2,0.2-0.4,0.4-0.5c0.1-0.1,0.2-0.5,0.2-0.7v-4c0-0.4-0.1-0.7-0.2-1.1c-0.1-0.4-0.5-0.5-0.8-0.5c-0.2,0-0.5,0-0.7,0.1
			c-0.2,0.1-0.4,0.2-0.6,0.4v4.7c0,0.2,0,0.5,0,0.6c0,0.1,0.1,0.4,0.2,0.6c0.1,0.2,0.4,0.4,0.4,0.5c0,0.1,0.1,0.4,0.1,0.6
			c0,0.4-0.1,0.6-0.2,0.7s-0.5,0.2-0.7,0.2h-4.6c-0.4,0-0.6-0.1-0.8-0.2c-0.2-0.1-0.4-0.4-0.4-0.7c0-0.2,0-0.5,0.1-0.6
			c0.1-0.1,0.2-0.2,0.4-0.4c0.1-0.1,0.2-0.2,0.4-0.5c0.1-0.2,0.1-0.5,0.1-0.7v-4.2c0-0.4,0-0.6-0.1-0.8s-0.2-0.4-0.4-0.5
			c-0.1-0.1-0.2-0.2-0.4-0.4c-0.1-0.1-0.1-0.4-0.1-0.6c0-0.4,0.1-0.6,0.4-0.7c0.3-0.1,0.5-0.4,0.7-0.4l2.5-0.9
			c0.2-0.1,0.6-0.2,0.9-0.4C42.9,6.6,42.9,6.7,43.3,6.7z"/>
		
			<linearGradient id="SVGID_00000145746650195944764420000010999293250998000297_" gradientUnits="userSpaceOnUse" x1="-4.1328" y1="14.5015" x2="132.7327" y2="14.5015" gradientTransform="matrix(1 0 0 -1 0 26)">
			<stop  offset="0" style="stop-color:#F926E1"/>
			<stop  offset="0.1" style="stop-color:#EF2CE2"/>
			<stop  offset="0.26" style="stop-color:#D63EE5"/>
			<stop  offset="0.47" style="stop-color:#AC5AEA"/>
			<stop  offset="0.72" style="stop-color:#7282F1"/>
			<stop  offset="1" style="stop-color:#2AB5FB"/>
		</linearGradient>
		<path style="fill:url(#SVGID_00000145746650195944764420000010999293250998000297_);" d="M59.2,19.4c-1.3,0-2.4-0.4-3.1-0.9
			c-0.7-0.6-1.2-1.7-1.2-3v-5c0-0.4-0.1-0.6-0.2-0.7c-0.1-0.1-0.4-0.2-0.5-0.4S53.9,9.1,53.8,9s-0.2-0.6-0.2-0.9
			c0-0.3,0.1-0.6,0.4-0.7c0.2-0.1,0.5-0.2,0.8-0.2h0.5c0.2,0,0.5-0.1,0.7-0.4s0.5-0.5,0.7-0.8c0.2-0.4,0.5-0.7,0.7-1.1
			c0.2-0.4,0.4-0.7,0.8-0.9s0.6-0.4,0.9-0.4c0.3,0,0.7,0.1,0.9,0.4c0.2,0.2,0.4,0.5,0.4,0.9V7H63c0.2,0,0.6,0.1,0.7,0.2
			c0.1,0.1,0.4,0.4,0.4,0.7c0,0.5-0.1,0.7-0.4,0.9c-0.2,0.2-0.6,0.4-0.9,0.5c-0.4,0.1-0.7,0.1-1.1,0.1h-1.2v4.6
			c0,0.4,0.1,0.7,0.2,1.1c0.1,0.4,0.5,0.5,0.9,0.5c0.4,0,0.6-0.1,0.7-0.2c0.1-0.1,0.4-0.4,0.6-0.5c0.2-0.1,0.4-0.2,0.6-0.2
			s0.4,0.1,0.5,0.2c0.1,0.1,0.1,0.4,0.1,0.5c0,0.8-0.2,1.4-0.7,2c-0.5,0.6-1.1,1.1-1.8,1.3C61,19.1,60,19.4,59.2,19.4z"/>
		
			<linearGradient id="SVGID_00000044177681402837997640000004925274169306622373_" gradientUnits="userSpaceOnUse" x1="-4.1328" y1="10.913" x2="132.7327" y2="10.913" gradientTransform="matrix(1 0 0 -1 0 26)">
			<stop  offset="0" style="stop-color:#F926E1"/>
			<stop  offset="0.1" style="stop-color:#EF2CE2"/>
			<stop  offset="0.26" style="stop-color:#D63EE5"/>
			<stop  offset="0.47" style="stop-color:#AC5AEA"/>
			<stop  offset="0.72" style="stop-color:#7282F1"/>
			<stop  offset="1" style="stop-color:#2AB5FB"/>
		</linearGradient>
		<path style="fill:url(#SVGID_00000044177681402837997640000004925274169306622373_);" d="M70.1,6.7c0.5,0,0.7,0.1,0.8,0.5
			C71,7.6,71,7.9,71,8.3v0.1c0.5-0.5,0.9-0.8,1.5-1.2c0.6-0.4,1.3-0.5,2-0.5c0.8,0,1.5,0.1,2.1,0.5c0.6,0.4,1.1,0.8,1.5,1.3
			c0.5,0.5,0.7,1.2,0.9,1.9c0.2,0.7,0.4,1.4,0.4,2.1c0,1.2-0.2,2.2-0.7,3.3c-0.5,1.1-1.2,1.8-2,2.5c-0.8,0.7-2,0.9-3.2,0.9
			c-0.8,0-1.5-0.1-2.1-0.5v1.3c0,0.2,0,0.5,0,0.6c0,0.1,0.1,0.2,0.1,0.4c0,0.1,0.2,0.2,0.4,0.5c0.1,0.1,0.2,0.2,0.4,0.5
			c0.1,0.2,0.1,0.4,0.1,0.5c0,0.4-0.1,0.6-0.4,0.8c-0.1,0.2-0.3,0.2-0.7,0.2h-5c-0.4,0-0.6-0.1-0.8-0.2c-0.2-0.1-0.4-0.5-0.4-0.8
			c0-0.2,0-0.5,0.1-0.6c0.1-0.1,0.2-0.2,0.4-0.4c0.1-0.1,0.2-0.2,0.4-0.5c0.1-0.2,0.1-0.5,0.1-0.8v-9c0-0.4,0-0.6-0.1-0.8
			s-0.2-0.4-0.4-0.4c-0.1,0-0.2-0.2-0.4-0.4C65,9.6,65,9.3,65,9.1s0.1-0.5,0.4-0.7c0.2-0.2,0.5-0.4,0.7-0.5L68.4,7
			c0.2-0.1,0.6-0.2,0.9-0.4S69.8,6.7,70.1,6.7z M72.2,9.7c-0.4,0-0.6,0.1-0.9,0.4v6.2c0.1,0.1,0.4,0.2,0.5,0.4
			c0.1,0.1,0.4,0.1,0.6,0.1c0.4,0,0.7-0.1,0.9-0.4c0.2-0.2,0.4-0.6,0.5-0.9c0.1-0.4,0.2-0.7,0.2-1.2c0-0.5,0-0.7,0-0.9
			c0-0.4,0-0.6-0.1-1.1c-0.1-0.5-0.1-0.7-0.2-1.2c-0.1-0.5-0.4-0.7-0.6-0.9C72.9,10,72.7,9.7,72.2,9.7z"/>
		
			<linearGradient id="SVGID_00000069394351405719531550000018154021767083064237_" gradientUnits="userSpaceOnUse" x1="-4.1328" y1="15.7092" x2="132.7327" y2="15.7092" gradientTransform="matrix(1 0 0 -1 0 26)">
			<stop  offset="0" style="stop-color:#F926E1"/>
			<stop  offset="0.1" style="stop-color:#EF2CE2"/>
			<stop  offset="0.26" style="stop-color:#D63EE5"/>
			<stop  offset="0.47" style="stop-color:#AC5AEA"/>
			<stop  offset="0.72" style="stop-color:#7282F1"/>
			<stop  offset="1" style="stop-color:#2AB5FB"/>
		</linearGradient>
		<path style="fill:url(#SVGID_00000069394351405719531550000018154021767083064237_);" d="M86.3,1.5c0.4,0,0.6,0.1,0.7,0.4
			c0.1,0.2,0.2,0.5,0.2,0.8v12.9c0,0.2,0,0.5,0,0.7c0,0.2,0.1,0.4,0.2,0.6c0.2,0.2,0.4,0.4,0.6,0.5c0.2,0.1,0.2,0.4,0.2,0.7
			c0,0.4-0.1,0.6-0.4,0.8c-0.2,0.2-0.5,0.2-0.8,0.2h-5c-0.4,0-0.6-0.1-0.8-0.2c-0.2-0.1-0.4-0.5-0.4-0.8c0-0.2,0-0.5,0.1-0.6
			c0.1-0.1,0.2-0.2,0.4-0.4c0.1-0.1,0.2-0.2,0.4-0.5c0.1-0.2,0.1-0.5,0.1-0.8V6.4c0-0.4-0.1-0.6-0.2-0.8c-0.1-0.2-0.2-0.4-0.5-0.4
			S80.6,5,80.5,4.8c-0.1-0.1-0.2-0.4-0.2-0.6c0-0.4,0.1-0.6,0.4-0.7c0.2-0.1,0.5-0.4,0.7-0.4l2.6-0.9C84.5,2.1,84.7,2,85,1.8
			C85.5,1.7,86,1.5,86.3,1.5z"/>
		
			<linearGradient id="SVGID_00000016054002295680914990000012870293405241724829_" gradientUnits="userSpaceOnUse" x1="-4.1328" y1="12.9416" x2="132.7327" y2="12.9416" gradientTransform="matrix(1 0 0 -1 0 26)">
			<stop  offset="0" style="stop-color:#F926E1"/>
			<stop  offset="0.1" style="stop-color:#EF2CE2"/>
			<stop  offset="0.26" style="stop-color:#D63EE5"/>
			<stop  offset="0.47" style="stop-color:#AC5AEA"/>
			<stop  offset="0.72" style="stop-color:#7282F1"/>
			<stop  offset="1" style="stop-color:#2AB5FB"/>
		</linearGradient>
		<path style="fill:url(#SVGID_00000016054002295680914990000012870293405241724829_);" d="M101.1,11.2c0,0.7-0.2,1.2-0.6,1.5
			s-0.9,0.5-1.7,0.5h-4.6c0.1,0.7,0.5,1.2,0.9,1.7c0.5,0.5,1.1,0.7,2,0.7c0.4,0,0.7-0.1,1.1-0.2c0.4-0.1,0.6-0.4,0.9-0.5
			c0.3-0.1,0.6-0.4,0.8-0.5c0.2-0.1,0.4-0.2,0.5-0.2c0.2,0,0.4,0.1,0.5,0.2c0.1,0.1,0.1,0.4,0.1,0.6c0,0.7-0.1,1.3-0.5,1.9
			c-0.4,0.6-0.7,0.9-1.3,1.3c-0.6,0.4-1.1,0.6-1.8,0.8s-1.3,0.2-1.9,0.2c-1.2,0-2.2-0.2-3.2-0.7c-0.9-0.5-1.7-1.2-2.1-2.1
			c-0.5-0.9-0.8-2-0.8-3.2c0-1.3,0.2-2.5,0.7-3.4c0.5-0.9,1.2-1.8,2.1-2.2c0.9-0.5,2.1-0.8,3.4-0.8c0.9,0,1.8,0.1,2.6,0.5
			c0.8,0.4,1.4,0.8,2,1.5C100.8,9.4,101.1,10.3,101.1,11.2z M93.9,11.6c0,0.1,0,0.1,0,0.2h1.2c0.2,0,0.5-0.1,0.6-0.2
			c0.1-0.1,0.1-0.4,0.1-0.6c0-0.2,0-0.5-0.1-0.7s-0.1-0.6-0.2-0.8c-0.1-0.2-0.4-0.4-0.6-0.4s-0.5,0.1-0.6,0.2
			c-0.1,0.2-0.2,0.5-0.4,0.7c-0.1,0.2-0.1,0.6-0.1,0.8C93.8,11.1,93.9,11.3,93.9,11.6z"/>
		
			<linearGradient id="SVGID_00000062185902333050281070000014925250328003387268_" gradientUnits="userSpaceOnUse" x1="-4.1328" y1="13.0925" x2="132.7327" y2="13.0925" gradientTransform="matrix(1 0 0 -1 0 26)">
			<stop  offset="0" style="stop-color:#F926E1"/>
			<stop  offset="0.1" style="stop-color:#EF2CE2"/>
			<stop  offset="0.26" style="stop-color:#D63EE5"/>
			<stop  offset="0.47" style="stop-color:#AC5AEA"/>
			<stop  offset="0.72" style="stop-color:#7282F1"/>
			<stop  offset="1" style="stop-color:#2AB5FB"/>
		</linearGradient>
		<path style="fill:url(#SVGID_00000062185902333050281070000014925250328003387268_);" d="M109.5,9.4c0,0.1,0,0.2,0.1,0.2
			s0.1,0.1,0.1,0.2c0.4,0.5,0.6,0.8,0.9,1.3l0.5-0.6c0.1-0.1,0.1-0.2,0.2-0.4c0.1-0.1,0.1-0.2,0.1-0.5c0-0.2-0.1-0.4-0.2-0.5
			c-0.1-0.1-0.4-0.4-0.5-0.5c-0.1-0.1-0.2-0.4-0.2-0.7c0-0.4,0.1-0.6,0.4-0.8c0.2-0.2,0.5-0.2,0.8-0.2h2.7c0.4,0,0.6,0.1,0.8,0.2
			c0.2,0.1,0.4,0.5,0.4,0.8c0,0.2-0.1,0.5-0.2,0.7S115.1,9,115,9.1c-0.6,0.5-1.2,1.1-1.7,1.7c-0.5,0.6-0.9,1.2-1.4,1.8
			c0.6,0.7,1.2,1.4,1.8,2.2c0.6,0.8,1.2,1.4,1.8,2.1c0.1,0.1,0.2,0.2,0.2,0.4c0,0.1,0.1,0.2,0.1,0.5c0,0.4-0.1,0.6-0.4,0.8
			c-0.2,0.2-0.5,0.2-0.8,0.2h-5.7c-0.4,0-0.6-0.1-0.8-0.2s-0.4-0.5-0.4-0.8c0-0.2,0.1-0.5,0.2-0.8c0.1-0.4,0.2-0.5,0.2-0.5
			s-0.1-0.2-0.4-0.6c-0.2-0.4-0.6-0.8-0.9-1.3c-0.1,0.2-0.2,0.4-0.4,0.5l0,0c-0.1,0.1-0.2,0.2-0.4,0.5c-0.1,0.2-0.1,0.4-0.1,0.5
			s0.1,0.4,0.2,0.5c0.1,0.1,0.4,0.4,0.5,0.5s0.2,0.5,0.2,0.7c0,0.4-0.1,0.6-0.4,0.8c-0.2,0.2-0.5,0.2-0.8,0.2h-2.8
			c-0.4,0-0.6-0.1-0.8-0.2s-0.4-0.5-0.4-0.8s0.1-0.6,0.2-0.7c0.1-0.1,0.4-0.4,0.6-0.5c0.6-0.5,1.2-0.9,1.7-1.7
			c0.5-0.7,0.8-1.2,1.3-1.9c-0.5-0.6-0.8-1.2-1.3-1.8c-0.5-0.6-0.6-0.8-0.7-0.9c-0.1-0.2-0.4-0.4-0.6-0.6c-0.2-0.2-0.4-0.4-0.6-0.6
			c-0.1-0.1-0.4-0.4-0.5-0.5c-0.1-0.1-0.1-0.4-0.1-0.6c0-0.4,0.1-0.6,0.4-0.8c0.3-0.2,0.5-0.2,0.8-0.2h5.7c0.4,0,0.6,0.1,0.8,0.2
			c0.2,0.1,0.4,0.5,0.4,0.8c0,0.2-0.1,0.5-0.2,0.7C109.5,9,109.5,9.2,109.5,9.4z"/>
	</g>
</g>
</svg>
