<?xml version="1.0" standalone="no"?><!DOCTYPE svg PUBLIC "-//W3C//DTD SVG 1.1//EN" "http://www.w3.org/Graphics/SVG/1.1/DTD/svg11.dtd"><svg t="1685169546733" class="icon" viewBox="0 0 1365 1024" version="1.1" xmlns="http://www.w3.org/2000/svg" p-id="14418" xmlns:xlink="http://www.w3.org/1999/xlink" width="119.970703125" height="90"><path d="M996.693333 362.837333H289.792V877.226667H996.693333V362.837333z" fill="#EFF2F4" p-id="14419"></path><path d="M1053.354667 273.749333H346.112V788.48h706.901333V273.749333h0.341334z" fill="#D6DAE1" p-id="14420"></path><path d="M500.053333 308.565333c18.090667 0 32.768-14.677333 32.768-32.768s-14.677333-32.768-32.768-32.768-32.768 14.677333-32.768 32.768c-0.341333 18.090667 14.677333 32.768 32.768 32.768z" fill="#358FFC" p-id="14421"></path><path d="M1048.917333 396.970667H349.525333v-8.874667h699.392v8.874667z m-284.672-60.757334h-226.304v-8.874666h226.304v8.874666zM534.869333 644.096l-89.088 24.917333-11.264-40.277333 59.392-130.730667 42.666667-11.946666 30.378667 108.202666 22.186666-6.144 10.581334 37.888-22.186667 6.144 9.216 32.768-42.666667 11.946667-9.216-32.768z m-10.581333-38.229333l-15.36-55.296-31.402667 68.608 46.762667-13.312z m117.077333-0.682667c-2.730667-34.474667 1.706667-59.392 12.970667-74.069333s30.037333-23.210667 55.296-25.258667c12.288-1.024 22.528-0.341333 30.378667 2.389333 8.192 2.389333 14.677333 5.802667 20.138666 10.24 5.461333 4.437333 9.557333 9.216 12.970667 14.336s6.144 11.264 8.533333 18.090667c4.437333 13.312 7.168 27.306667 8.533334 41.984 2.730667 33.109333-1.024 57.685333-11.264 73.728-9.898667 16.042667-28.672 25.258667-55.978667 27.306667-15.36 1.024-27.989333-0.341333-37.546667-4.437334-9.898667-4.096-18.090667-10.581333-24.917333-19.797333-4.778667-6.485333-9.216-15.36-12.288-26.624-3.754667-10.922667-5.802667-23.552-6.826667-37.888z m50.176-3.754667c1.706667 23.210667 5.12 38.912 9.898667 47.104 4.778667 8.192 10.922667 11.946667 18.773333 11.264 5.12-0.341333 9.557333-2.389333 12.970667-6.485333s5.802667-9.898667 6.826667-17.749333c1.365333-7.850667 1.024-20.138667 0-36.522667-2.048-24.234667-5.12-40.277333-9.898667-48.128-4.778667-8.192-11.264-11.605333-19.456-11.264-8.192 0.682667-13.994667 5.461333-17.066667 14.336-3.413333 8.874667-4.096 24.576-2.048 47.445333z m225.28 23.552l-91.818666-11.605333 5.12-41.301333 105.472-97.28 44.032 5.461333-13.994667 111.274667 22.869333 2.730666-4.778666 38.912-22.869334-2.730666-4.437333 33.792-44.032-5.461334 4.437333-33.792z m4.778667-39.253333l7.168-57.002667-55.637333 50.858667 48.469333 6.144z" fill="#FFFFFF" p-id="14422"></path><path d="M1003.178667 924.672c73.045333 0 132.096-59.050667 132.096-132.096s-59.050667-132.096-132.096-132.096c-73.045333 0-132.096 59.050667-132.096 132.096s59.392 132.096 132.096 132.096z" fill="#EA445A" p-id="14423"></path><path d="M274.432 506.88c-6.144 0-11.946667-1.365333-17.408-4.437333-19.114667-10.581333-29.354667-37.546667-28.672-76.117334 0.682667-58.026667 4.437333-313.344 4.437333-316.074666h8.192c0 2.730667-3.754667 258.048-4.437333 316.074666-0.341333 35.498667 8.192 60.074667 24.576 68.949334 10.24 5.461333 22.869333 4.437333 34.816-3.413334l4.437333 6.826667c-8.874667 5.461333-17.749333 8.192-25.941333 8.192z" fill="#231815" p-id="14424"></path><path d="M324.608 561.493333c-13.653333 0-27.648-7.850667-31.061333-25.941333-4.096-21.504 0-151.893333 0.341333-157.354667l8.192 0.341334c0 1.365333-4.437333 134.826667-0.341333 155.648 2.730667 15.701333 15.36 20.138667 25.6 19.114666 10.922667-1.024 22.528-8.533333 22.528-23.210666h8.192c0 18.773333-15.018667 29.696-29.696 31.061333-1.706667 0.341333-2.730667 0.341333-3.754667 0.341333z" fill="#231815" p-id="14425"></path><path d="M383.658667 571.392c-5.461333 0-11.264-1.365333-16.384-4.096-10.922667-5.802667-17.408-16.042667-18.090667-29.013333-1.024-22.869333 2.048-137.898667 2.048-142.677334l8.192 0.341334c0 1.024-3.072 119.466667-2.048 141.994666 0.341333 9.557333 5.461333 17.749333 13.653333 22.186667 8.874667 4.437333 19.114667 4.096 27.648-1.365333 11.264-7.168 16.725333-22.186667 15.701334-41.642667l8.192-0.341333c1.706667 30.72-11.264 43.690667-19.114667 49.152-6.485333 3.413333-12.970667 5.461333-19.797333 5.461333z" fill="#231815" p-id="14426"></path><path d="M447.146667 552.618667h-3.413334c-15.36-1.706667-31.061333-14.336-31.061333-38.912 0-18.090667 1.365333-124.928 1.365333-125.952h8.192c0 1.024-1.365333 108.202667-1.365333 125.952 0 20.821333 12.970667 29.696 23.893333 30.72 11.946667 1.365333 25.941333-5.802667 30.037334-24.917334 5.802667-26.282667 3.413333-61.098667 1.024-92.16-1.024-16.384-2.389333-31.402667-2.048-44.714666 0-32.768 3.072-90.794667 24.576-107.52 5.802667-4.437333 12.288-5.802667 19.797333-4.096l-2.048 7.850666c-4.778667-1.365333-9.216-0.341333-12.970667 2.730667-13.653333 10.581333-21.504 48.469333-21.504 101.376 0 12.970667 1.024 27.989333 2.048 44.032 2.389333 31.402667 4.778667 66.901333-1.365333 94.208-4.437333 22.186667-20.48 31.402667-35.157333 31.402667z m154.965333-279.210667c-5.802667-30.72-25.941333-51.541333-59.733333-61.781333-25.941333-7.850667-50.517333-6.485333-50.517334-6.485334l-4.096 0.341334V102.741333h8.192v94.549334h0.341334c20.138667 0 101.034667 4.437333 114.346666 75.093333l-8.533333 1.024z" fill="#231815" p-id="14427"></path><path d="M927.061333 822.613333l-6.485333-4.778666c1.024-1.706667 29.696-38.912 76.8-43.690667 32.085333-3.072 64.853333 9.898667 96.938667 38.570667l-5.461334 6.144c-30.378667-27.306667-60.757333-39.594667-90.453333-36.522667-43.690667 4.096-71.338667 39.936-71.338667 40.277333z" fill="#FFFFFF" p-id="14428"></path></svg>