<svg width="100" height="100" viewBox="0 0 100 100" fill="none" xmlns="http://www.w3.org/2000/svg">
<circle cx="50" cy="50" r="50" fill="url(#paint0_linear_95_1431)"/>
<rect x="18" y="23" width="64" height="54" rx="8" stroke="white" stroke-width="2"/>
<path d="M50 37.5V62.5M43.75 56.6292L45.5812 58.0021C48.0208 59.8333 51.9771 59.8333 54.4187 58.0021C56.8604 56.1708 56.8604 53.2042 54.4187 51.3729C53.2 50.4563 51.6 50 50 50C48.4896 50 46.9792 49.5417 45.8271 48.6271C43.5229 46.7958 43.5229 43.8292 45.8271 41.9979C48.1312 40.1667 51.8687 40.1667 54.1729 41.9979L55.0375 42.6854M68.75 50C68.75 52.4623 68.265 54.9005 67.3227 57.1753C66.3805 59.4502 64.9993 61.5172 63.2582 63.2582C61.5172 64.9993 59.4502 66.3805 57.1753 67.3227C54.9005 68.265 52.4623 68.75 50 68.75C47.5377 68.75 45.0995 68.265 42.8247 67.3227C40.5498 66.3805 38.4828 64.9993 36.7417 63.2582C35.0006 61.5172 33.6195 59.4502 32.6773 57.1753C31.735 54.9005 31.25 52.4623 31.25 50C31.25 45.0272 33.2254 40.2581 36.7417 36.7417C40.2581 33.2254 45.0272 31.25 50 31.25C54.9728 31.25 59.7419 33.2254 63.2582 36.7417C66.7746 40.2581 68.75 45.0272 68.75 50Z" stroke="white" stroke-width="2" stroke-linecap="round" stroke-linejoin="round"/>
<defs>
<linearGradient id="paint0_linear_95_1431" x1="50" y1="0" x2="50" y2="100" gradientUnits="userSpaceOnUse">
<stop stop-color="#642DFF"/>
<stop offset="1" stop-color="#892DFF"/>
</linearGradient>
</defs>
</svg>
