<svg
xmlns="http://www.w3.org/2000/svg"
aria-hidden="true"
viewBox="0 -17 358 66"
height="66"
width="358"
style="transform: translateY(-17px)"
>
<defs>
<linearGradient id="sparkbar-series-3" x1="0%" x2="0%" y1="100%" y2="0%" gradientUnits="userSpaceOnUse">
<stop offset="0%" stop-color="#f5f5f5" stop-opacity="1"></stop>
<stop offset="1%" stop-color="#f5f5f5" stop-opacity="1"></stop>
</linearGradient>
</defs>
<mask id="sparkbar-series-clip-4">
<g opacity="1">
<path
d="
M2.1345826235093694,0
h0
a2.1345826235093694,2.1345826235093694 0 0 1 2.1345826235093694,2.1345826235093694
v21.86541737649063
a0,0 0 0 1 -0,0
h-4.269165247018739
a0,0 0 0 1 -0,-0
v-21.86541737649063
a2.1345826235093694,2.1345826235093694 0 0 1 2.1345826235093694,-2.1345826235093694
Z
"
transform="translate(0 8), rotate(0)"
fill="white"
></path>
<path
d="
M2.1345826235093694,0
h0
a2.1345826235093694,2.1345826235093694 0 0 1 2.1345826235093694,2.1345826235093694
v21.86541737649063
a0,0 0 0 1 -0,0
h-4.269165247018739
a0,0 0 0 1 -0,-0
v-21.86541737649063
a2.1345826235093694,2.1345826235093694 0 0 1 2.1345826235093694,-2.1345826235093694
Z
"
transform="translate(6.098807495741056 8), rotate(0)"
fill="white"
></path>
<path
d="
M2.1345826235093694,0
h0
a2.1345826235093694,2.1345826235093694 0 0 1 2.1345826235093694,2.1345826235093694
v21.86541737649063
a0,0 0 0 1 -0,0
h-4.269165247018739
a0,0 0 0 1 -0,-0
v-21.86541737649063
a2.1345826235093694,2.1345826235093694 0 0 1 2.1345826235093694,-2.1345826235093694
Z
"
transform="translate(12.197614991482112 8), rotate(0)"
fill="white"
></path>
<path
d="
M2.1345826235093694,0
h0
a2.1345826235093694,2.1345826235093694 0 0 1 2.1345826235093694,2.1345826235093694
v21.86541737649063
a0,0 0 0 1 -0,0
h-4.269165247018739
a0,0 0 0 1 -0,-0
v-21.86541737649063
a2.1345826235093694,2.1345826235093694 0 0 1 2.1345826235093694,-2.1345826235093694
Z
"
transform="translate(18.296422487223168 8), rotate(0)"
fill="white"
></path>
<path
d="
M2.1345826235093694,0
h0
a2.1345826235093694,2.1345826235093694 0 0 1 2.1345826235093694,2.1345826235093694
v21.86541737649063
a0,0 0 0 1 -0,0
h-4.269165247018739
a0,0 0 0 1 -0,-0
v-21.86541737649063
a2.1345826235093694,2.1345826235093694 0 0 1 2.1345826235093694,-2.1345826235093694
Z
"
transform="translate(24.395229982964224 8), rotate(0)"
fill="white"
></path>
<path
d="
M2.1345826235093694,0
h0
a2.1345826235093694,2.1345826235093694 0 0 1 2.1345826235093694,2.1345826235093694
v21.86541737649063
a0,0 0 0 1 -0,0
h-4.269165247018739
a0,0 0 0 1 -0,-0
v-21.86541737649063
a2.1345826235093694,2.1345826235093694 0 0 1 2.1345826235093694,-2.1345826235093694
Z
"
transform="translate(30.49403747870528 8), rotate(0)"
fill="white"
></path>
<path
d="
M2.1345826235093694,0
h0
a2.1345826235093694,2.1345826235093694 0 0 1 2.1345826235093694,2.1345826235093694
v21.86541737649063
a0,0 0 0 1 -0,0
h-4.269165247018739
a0,0 0 0 1 -0,-0
v-21.86541737649063
a2.1345826235093694,2.1345826235093694 0 0 1 2.1345826235093694,-2.1345826235093694
Z
"
transform="translate(36.592844974446336 8), rotate(0)"
fill="white"
></path>
<path
d="
M2.1345826235093694,0
h0
a2.1345826235093694,2.1345826235093694 0 0 1 2.1345826235093694,2.1345826235093694
v21.86541737649063
a0,0 0 0 1 -0,0
h-4.269165247018739
a0,0 0 0 1 -0,-0
v-21.86541737649063
a2.1345826235093694,2.1345826235093694 0 0 1 2.1345826235093694,-2.1345826235093694
Z
"
transform="translate(42.69165247018739 8), rotate(0)"
fill="white"
></path>
<path
d="
M2.1345826235093694,0
h0
a2.1345826235093694,2.1345826235093694 0 0 1 2.1345826235093694,2.1345826235093694
v21.86541737649063
a0,0 0 0 1 -0,0
h-4.269165247018739
a0,0 0 0 1 -0,-0
v-21.86541737649063
a2.1345826235093694,2.1345826235093694 0 0 1 2.1345826235093694,-2.1345826235093694
Z
"
transform="translate(48.79045996592845 8), rotate(0)"
fill="white"
></path>
<path
d="
M2.1345826235093694,0
h0
a2.1345826235093694,2.1345826235093694 0 0 1 2.1345826235093694,2.1345826235093694
v21.86541737649063
a0,0 0 0 1 -0,0
h-4.269165247018739
a0,0 0 0 1 -0,-0
v-21.86541737649063
a2.1345826235093694,2.1345826235093694 0 0 1 2.1345826235093694,-2.1345826235093694
Z
"
transform="translate(54.889267461669505 8), rotate(0)"
fill="white"
></path>
<path
d="
M2.1345826235093694,0
h0
a2.1345826235093694,2.1345826235093694 0 0 1 2.1345826235093694,2.1345826235093694
v21.86541737649063
a0,0 0 0 1 -0,0
h-4.269165247018739
a0,0 0 0 1 -0,-0
v-21.86541737649063
a2.1345826235093694,2.1345826235093694 0 0 1 2.1345826235093694,-2.1345826235093694
Z
"
transform="translate(60.98807495741056 8), rotate(0)"
fill="white"
></path>
<path
d="
M2.1345826235093694,0
h0
a2.1345826235093694,2.1345826235093694 0 0 1 2.1345826235093694,2.1345826235093694
v21.86541737649063
a0,0 0 0 1 -0,0
h-4.269165247018739
a0,0 0 0 1 -0,-0
v-21.86541737649063
a2.1345826235093694,2.1345826235093694 0 0 1 2.1345826235093694,-2.1345826235093694
Z
"
transform="translate(67.08688245315162 8), rotate(0)"
fill="white"
></path>
<path
d="
M2.1345826235093694,0
h0
a2.1345826235093694,2.1345826235093694 0 0 1 2.1345826235093694,2.1345826235093694
v21.86541737649063
a0,0 0 0 1 -0,0
h-4.269165247018739
a0,0 0 0 1 -0,-0
v-21.86541737649063
a2.1345826235093694,2.1345826235093694 0 0 1 2.1345826235093694,-2.1345826235093694
Z
"
transform="translate(73.18568994889267 8), rotate(0)"
fill="white"
></path>
<path
d="
M2.1345826235093694,0
h0
a2.1345826235093694,2.1345826235093694 0 0 1 2.1345826235093694,2.1345826235093694
v21.86541737649063
a0,0 0 0 1 -0,0
h-4.269165247018739
a0,0 0 0 1 -0,-0
v-21.86541737649063
a2.1345826235093694,2.1345826235093694 0 0 1 2.1345826235093694,-2.1345826235093694
Z
"
transform="translate(79.28449744463373 8), rotate(0)"
fill="white"
></path>
<path
d="
M2.1345826235093694,0
h0
a2.1345826235093694,2.1345826235093694 0 0 1 2.1345826235093694,2.1345826235093694
v21.86541737649063
a0,0 0 0 1 -0,0
h-4.269165247018739
a0,0 0 0 1 -0,-0
v-21.86541737649063
a2.1345826235093694,2.1345826235093694 0 0 1 2.1345826235093694,-2.1345826235093694
Z
"
transform="translate(85.38330494037479 8), rotate(0)"
fill="white"
></path>
<path
d="
M2.1345826235093694,0
h0
a2.1345826235093694,2.1345826235093694 0 0 1 2.1345826235093694,2.1345826235093694
v21.86541737649063
a0,0 0 0 1 -0,0
h-4.269165247018739
a0,0 0 0 1 -0,-0
v-21.86541737649063
a2.1345826235093694,2.1345826235093694 0 0 1 2.1345826235093694,-2.1345826235093694
Z
"
transform="translate(91.48211243611584 8), rotate(0)"
fill="white"
></path>
<path
d="
M2.1345826235093694,0
h0
a2.1345826235093694,2.1345826235093694 0 0 1 2.1345826235093694,2.1345826235093694
v21.86541737649063
a0,0 0 0 1 -0,0
h-4.269165247018739
a0,0 0 0 1 -0,-0
v-21.86541737649063
a2.1345826235093694,2.1345826235093694 0 0 1 2.1345826235093694,-2.1345826235093694
Z
"
transform="translate(97.5809199318569 8), rotate(0)"
fill="white"
></path>
<path
d="
M2.1345826235093694,0
h0
a2.1345826235093694,2.1345826235093694 0 0 1 2.1345826235093694,2.1345826235093694
v21.86541737649063
a0,0 0 0 1 -0,0
h-4.269165247018739
a0,0 0 0 1 -0,-0
v-21.86541737649063
a2.1345826235093694,2.1345826235093694 0 0 1 2.1345826235093694,-2.1345826235093694
Z
"
transform="translate(103.67972742759795 8), rotate(0)"
fill="white"
></path>
<path
d="
M2.1345826235093694,0
h0
a2.1345826235093694,2.1345826235093694 0 0 1 2.1345826235093694,2.1345826235093694
v21.86541737649063
a0,0 0 0 1 -0,0
h-4.269165247018739
a0,0 0 0 1 -0,-0
v-21.86541737649063
a2.1345826235093694,2.1345826235093694 0 0 1 2.1345826235093694,-2.1345826235093694
Z
"
transform="translate(109.77853492333901 8), rotate(0)"
fill="white"
></path>
<path
d="
M2.1345826235093694,0
h0
a2.1345826235093694,2.1345826235093694 0 0 1 2.1345826235093694,2.1345826235093694
v21.86541737649063
a0,0 0 0 1 -0,0
h-4.269165247018739
a0,0 0 0 1 -0,-0
v-21.86541737649063
a2.1345826235093694,2.1345826235093694 0 0 1 2.1345826235093694,-2.1345826235093694
Z
"
transform="translate(115.87734241908007 8), rotate(0)"
fill="white"
></path>
<path
d="
M2.1345826235093694,0
h0
a2.1345826235093694,2.1345826235093694 0 0 1 2.1345826235093694,2.1345826235093694
v21.86541737649063
a0,0 0 0 1 -0,0
h-4.269165247018739
a0,0 0 0 1 -0,-0
v-21.86541737649063
a2.1345826235093694,2.1345826235093694 0 0 1 2.1345826235093694,-2.1345826235093694
Z
"
transform="translate(121.97614991482112 8), rotate(0)"
fill="white"
></path>
<path
d="
M2.1345826235093694,0
h0
a2.1345826235093694,2.1345826235093694 0 0 1 2.1345826235093694,2.1345826235093694
v21.86541737649063
a0,0 0 0 1 -0,0
h-4.269165247018739
a0,0 0 0 1 -0,-0
v-21.86541737649063
a2.1345826235093694,2.1345826235093694 0 0 1 2.1345826235093694,-2.1345826235093694
Z
"
transform="translate(128.07495741056218 8), rotate(0)"
fill="white"
></path>
<path
d="
M2.1345826235093694,0
h0
a2.1345826235093694,2.1345826235093694 0 0 1 2.1345826235093694,2.1345826235093694
v21.86541737649063
a0,0 0 0 1 -0,0
h-4.269165247018739
a0,0 0 0 1 -0,-0
v-21.86541737649063
a2.1345826235093694,2.1345826235093694 0 0 1 2.1345826235093694,-2.1345826235093694
Z
"
transform="translate(134.17376490630323 8), rotate(0)"
fill="white"
></path>
<path
d="
M2.1345826235093694,0
h0
a2.1345826235093694,2.1345826235093694 0 0 1 2.1345826235093694,2.1345826235093694
v21.86541737649063
a0,0 0 0 1 -0,0
h-4.269165247018739
a0,0 0 0 1 -0,-0
v-21.86541737649063
a2.1345826235093694,2.1345826235093694 0 0 1 2.1345826235093694,-2.1345826235093694
Z
"
transform="translate(140.2725724020443 8), rotate(0)"
fill="white"
></path>
<path
d="
M2.1345826235093694,0
h0
a2.1345826235093694,2.1345826235093694 0 0 1 2.1345826235093694,2.1345826235093694
v21.86541737649063
a0,0 0 0 1 -0,0
h-4.269165247018739
a0,0 0 0 1 -0,-0
v-21.86541737649063
a2.1345826235093694,2.1345826235093694 0 0 1 2.1345826235093694,-2.1345826235093694
Z
"
transform="translate(146.37137989778535 8), rotate(0)"
fill="white"
></path>
<path
d="
M2.1345826235093694,0
h0
a2.1345826235093694,2.1345826235093694 0 0 1 2.1345826235093694,2.1345826235093694
v21.86541737649063
a0,0 0 0 1 -0,0
h-4.269165247018739
a0,0 0 0 1 -0,-0
v-21.86541737649063
a2.1345826235093694,2.1345826235093694 0 0 1 2.1345826235093694,-2.1345826235093694
Z
"
transform="translate(152.4701873935264 8), rotate(0)"
fill="white"
></path>
<path
d="
M2.1345826235093694,0
h0
a2.1345826235093694,2.1345826235093694 0 0 1 2.1345826235093694,2.1345826235093694
v21.86541737649063
a0,0 0 0 1 -0,0
h-4.269165247018739
a0,0 0 0 1 -0,-0
v-21.86541737649063
a2.1345826235093694,2.1345826235093694 0 0 1 2.1345826235093694,-2.1345826235093694
Z
"
transform="translate(158.56899488926746 8), rotate(0)"
fill="white"
></path>
<path
d="
M2.1345826235093694,0
h0
a2.1345826235093694,2.1345826235093694 0 0 1 2.1345826235093694,2.1345826235093694
v21.86541737649063
a0,0 0 0 1 -0,0
h-4.269165247018739
a0,0 0 0 1 -0,-0
v-21.86541737649063
a2.1345826235093694,2.1345826235093694 0 0 1 2.1345826235093694,-2.1345826235093694
Z
"
transform="translate(164.6678023850085 8), rotate(0)"
fill="white"
></path>
<path
d="
M2.1345826235093694,0
h0
a2.1345826235093694,2.1345826235093694 0 0 1 2.1345826235093694,2.1345826235093694
v21.86541737649063
a0,0 0 0 1 -0,0
h-4.269165247018739
a0,0 0 0 1 -0,-0
v-21.86541737649063
a2.1345826235093694,2.1345826235093694 0 0 1 2.1345826235093694,-2.1345826235093694
Z
"
transform="translate(170.76660988074957 8), rotate(0)"
fill="white"
></path>
<path
d="
M2.1345826235093694,0
h0
a2.1345826235093694,2.1345826235093694 0 0 1 2.1345826235093694,2.1345826235093694
v21.86541737649063
a0,0 0 0 1 -0,0
h-4.269165247018739
a0,0 0 0 1 -0,-0
v-21.86541737649063
a2.1345826235093694,2.1345826235093694 0 0 1 2.1345826235093694,-2.1345826235093694
Z
"
transform="translate(176.86541737649063 8), rotate(0)"
fill="white"
></path>
<path
d="
M2.1345826235093694,0
h0
a2.1345826235093694,2.1345826235093694 0 0 1 2.1345826235093694,2.1345826235093694
v21.86541737649063
a0,0 0 0 1 -0,0
h-4.269165247018739
a0,0 0 0 1 -0,-0
v-21.86541737649063
a2.1345826235093694,2.1345826235093694 0 0 1 2.1345826235093694,-2.1345826235093694
Z
"
transform="translate(182.96422487223168 8), rotate(0)"
fill="white"
></path>
<path
d="
M2.1345826235093694,0
h0
a2.1345826235093694,2.1345826235093694 0 0 1 2.1345826235093694,2.1345826235093694
v21.86541737649063
a0,0 0 0 1 -0,0
h-4.269165247018739
a0,0 0 0 1 -0,-0
v-21.86541737649063
a2.1345826235093694,2.1345826235093694 0 0 1 2.1345826235093694,-2.1345826235093694
Z
"
transform="translate(189.06303236797274 8), rotate(0)"
fill="white"
></path>
<path
d="
M2.1345826235093694,0
h0
a2.1345826235093694,2.1345826235093694 0 0 1 2.1345826235093694,2.1345826235093694
v21.86541737649063
a0,0 0 0 1 -0,0
h-4.269165247018739
a0,0 0 0 1 -0,-0
v-21.86541737649063
a2.1345826235093694,2.1345826235093694 0 0 1 2.1345826235093694,-2.1345826235093694
Z
"
transform="translate(195.1618398637138 8), rotate(0)"
fill="white"
></path>
<path
d="
M2.1345826235093694,0
h0
a2.1345826235093694,2.1345826235093694 0 0 1 2.1345826235093694,2.1345826235093694
v21.86541737649063
a0,0 0 0 1 -0,0
h-4.269165247018739
a0,0 0 0 1 -0,-0
v-21.86541737649063
a2.1345826235093694,2.1345826235093694 0 0 1 2.1345826235093694,-2.1345826235093694
Z
"
transform="translate(201.26064735945485 8), rotate(0)"
fill="white"
></path>
<path
d="
M2.1345826235093694,0
h0
a2.1345826235093694,2.1345826235093694 0 0 1 2.1345826235093694,2.1345826235093694
v21.86541737649063
a0,0 0 0 1 -0,0
h-4.269165247018739
a0,0 0 0 1 -0,-0
v-21.86541737649063
a2.1345826235093694,2.1345826235093694 0 0 1 2.1345826235093694,-2.1345826235093694
Z
"
transform="translate(207.3594548551959 8), rotate(0)"
fill="white"
></path>
<path
d="
M2.1345826235093694,0
h0
a2.1345826235093694,2.1345826235093694 0 0 1 2.1345826235093694,2.1345826235093694
v21.86541737649063
a0,0 0 0 1 -0,0
h-4.269165247018739
a0,0 0 0 1 -0,-0
v-21.86541737649063
a2.1345826235093694,2.1345826235093694 0 0 1 2.1345826235093694,-2.1345826235093694
Z
"
transform="translate(213.45826235093696 8), rotate(0)"
fill="white"
></path>
<path
d="
M2.1345826235093694,0
h0
a2.1345826235093694,2.1345826235093694 0 0 1 2.1345826235093694,2.1345826235093694
v21.86541737649063
a0,0 0 0 1 -0,0
h-4.269165247018739
a0,0 0 0 1 -0,-0
v-21.86541737649063
a2.1345826235093694,2.1345826235093694 0 0 1 2.1345826235093694,-2.1345826235093694
Z
"
transform="translate(219.55706984667802 8), rotate(0)"
fill="white"
></path>
<path
d="
M2.1345826235093694,0
h0
a2.1345826235093694,2.1345826235093694 0 0 1 2.1345826235093694,2.1345826235093694
v21.86541737649063
a0,0 0 0 1 -0,0
h-4.269165247018739
a0,0 0 0 1 -0,-0
v-21.86541737649063
a2.1345826235093694,2.1345826235093694 0 0 1 2.1345826235093694,-2.1345826235093694
Z
"
transform="translate(225.65587734241907 8), rotate(0)"
fill="white"
></path>
<path
d="
M2.1345826235093694,0
h0
a2.1345826235093694,2.1345826235093694 0 0 1 2.1345826235093694,2.1345826235093694
v21.86541737649063
a0,0 0 0 1 -0,0
h-4.269165247018739
a0,0 0 0 1 -0,-0
v-21.86541737649063
a2.1345826235093694,2.1345826235093694 0 0 1 2.1345826235093694,-2.1345826235093694
Z
"
transform="translate(231.75468483816013 8), rotate(0)"
fill="white"
></path>
<path
d="
M2.1345826235093694,0
h0
a2.1345826235093694,2.1345826235093694 0 0 1 2.1345826235093694,2.1345826235093694
v21.86541737649063
a0,0 0 0 1 -0,0
h-4.269165247018739
a0,0 0 0 1 -0,-0
v-21.86541737649063
a2.1345826235093694,2.1345826235093694 0 0 1 2.1345826235093694,-2.1345826235093694
Z
"
transform="translate(237.8534923339012 8), rotate(0)"
fill="white"
></path>
<path
d="
M2.1345826235093694,0
h0
a2.1345826235093694,2.1345826235093694 0 0 1 2.1345826235093694,2.1345826235093694
v21.86541737649063
a0,0 0 0 1 -0,0
h-4.269165247018739
a0,0 0 0 1 -0,-0
v-21.86541737649063
a2.1345826235093694,2.1345826235093694 0 0 1 2.1345826235093694,-2.1345826235093694
Z
"
transform="translate(243.95229982964224 8), rotate(0)"
fill="white"
></path>
<path
d="
M2.1345826235093694,0
h0
a2.1345826235093694,2.1345826235093694 0 0 1 2.1345826235093694,2.1345826235093694
v21.86541737649063
a0,0 0 0 1 -0,0
h-4.269165247018739
a0,0 0 0 1 -0,-0
v-21.86541737649063
a2.1345826235093694,2.1345826235093694 0 0 1 2.1345826235093694,-2.1345826235093694
Z
"
transform="translate(250.0511073253833 8), rotate(0)"
fill="white"
></path>
<path
d="
M2.1345826235093694,0
h0
a2.1345826235093694,2.1345826235093694 0 0 1 2.1345826235093694,2.1345826235093694
v21.86541737649063
a0,0 0 0 1 -0,0
h-4.269165247018739
a0,0 0 0 1 -0,-0
v-21.86541737649063
a2.1345826235093694,2.1345826235093694 0 0 1 2.1345826235093694,-2.1345826235093694
Z
"
transform="translate(256.14991482112436 8), rotate(0)"
fill="white"
></path>
<path
d="
M2.1345826235093694,0
h0
a2.1345826235093694,2.1345826235093694 0 0 1 2.1345826235093694,2.1345826235093694
v21.86541737649063
a0,0 0 0 1 -0,0
h-4.269165247018739
a0,0 0 0 1 -0,-0
v-21.86541737649063
a2.1345826235093694,2.1345826235093694 0 0 1 2.1345826235093694,-2.1345826235093694
Z
"
transform="translate(262.2487223168654 8), rotate(0)"
fill="white"
></path>
<path
d="
M2.1345826235093694,0
h0
a2.1345826235093694,2.1345826235093694 0 0 1 2.1345826235093694,2.1345826235093694
v21.86541737649063
a0,0 0 0 1 -0,0
h-4.269165247018739
a0,0 0 0 1 -0,-0
v-21.86541737649063
a2.1345826235093694,2.1345826235093694 0 0 1 2.1345826235093694,-2.1345826235093694
Z
"
transform="translate(268.34752981260647 8), rotate(0)"
fill="white"
></path>
<path
d="
M2.1345826235093694,0
h0
a2.1345826235093694,2.1345826235093694 0 0 1 2.1345826235093694,2.1345826235093694
v21.86541737649063
a0,0 0 0 1 -0,0
h-4.269165247018739
a0,0 0 0 1 -0,-0
v-21.86541737649063
a2.1345826235093694,2.1345826235093694 0 0 1 2.1345826235093694,-2.1345826235093694
Z
"
transform="translate(274.44633730834755 8), rotate(0)"
fill="white"
></path>
<path
d="
M2.1345826235093694,0
h0
a2.1345826235093694,2.1345826235093694 0 0 1 2.1345826235093694,2.1345826235093694
v21.86541737649063
a0,0 0 0 1 -0,0
h-4.269165247018739
a0,0 0 0 1 -0,-0
v-21.86541737649063
a2.1345826235093694,2.1345826235093694 0 0 1 2.1345826235093694,-2.1345826235093694
Z
"
transform="translate(280.5451448040886 8), rotate(0)"
fill="white"
></path>
<path
d="
M2.1345826235093694,0
h0
a2.1345826235093694,2.1345826235093694 0 0 1 2.1345826235093694,2.1345826235093694
v21.86541737649063
a0,0 0 0 1 -0,0
h-4.269165247018739
a0,0 0 0 1 -0,-0
v-21.86541737649063
a2.1345826235093694,2.1345826235093694 0 0 1 2.1345826235093694,-2.1345826235093694
Z
"
transform="translate(286.6439522998296 8), rotate(0)"
fill="white"
></path>
<path
d="
M2.1345826235093694,0
h0
a2.1345826235093694,2.1345826235093694 0 0 1 2.1345826235093694,2.1345826235093694
v21.86541737649063
a0,0 0 0 1 -0,0
h-4.269165247018739
a0,0 0 0 1 -0,-0
v-21.86541737649063
a2.1345826235093694,2.1345826235093694 0 0 1 2.1345826235093694,-2.1345826235093694
Z
"
transform="translate(292.7427597955707 8), rotate(0)"
fill="white"
></path>
<path
d="
M2.1345826235093694,0
h0
a2.1345826235093694,2.1345826235093694 0 0 1 2.1345826235093694,2.1345826235093694
v21.86541737649063
a0,0 0 0 1 -0,0
h-4.269165247018739
a0,0 0 0 1 -0,-0
v-21.86541737649063
a2.1345826235093694,2.1345826235093694 0 0 1 2.1345826235093694,-2.1345826235093694
Z
"
transform="translate(298.8415672913118 8), rotate(0)"
fill="white"
></path>
<path
d="
M2.1345826235093694,0
h0
a2.1345826235093694,2.1345826235093694 0 0 1 2.1345826235093694,2.1345826235093694
v21.86541737649063
a0,0 0 0 1 -0,0
h-4.269165247018739
a0,0 0 0 1 -0,-0
v-21.86541737649063
a2.1345826235093694,2.1345826235093694 0 0 1 2.1345826235093694,-2.1345826235093694
Z
"
transform="translate(304.9403747870528 8), rotate(0)"
fill="white"
></path>
<path
d="
M2.1345826235093694,0
h0
a2.1345826235093694,2.1345826235093694 0 0 1 2.1345826235093694,2.1345826235093694
v21.86541737649063
a0,0 0 0 1 -0,0
h-4.269165247018739
a0,0 0 0 1 -0,-0
v-21.86541737649063
a2.1345826235093694,2.1345826235093694 0 0 1 2.1345826235093694,-2.1345826235093694
Z
"
transform="translate(311.03918228279383 8), rotate(0)"
fill="white"
></path>
<path
d="
M2.1345826235093694,0
h0
a2.1345826235093694,2.1345826235093694 0 0 1 2.1345826235093694,2.1345826235093694
v21.86541737649063
a0,0 0 0 1 -0,0
h-4.269165247018739
a0,0 0 0 1 -0,-0
v-21.86541737649063
a2.1345826235093694,2.1345826235093694 0 0 1 2.1345826235093694,-2.1345826235093694
Z
"
transform="translate(317.1379897785349 8), rotate(0)"
fill="white"
></path>
<path
d="
M2.1345826235093694,0
h0
a2.1345826235093694,2.1345826235093694 0 0 1 2.1345826235093694,2.1345826235093694
v21.86541737649063
a0,0 0 0 1 -0,0
h-4.269165247018739
a0,0 0 0 1 -0,-0
v-21.86541737649063
a2.1345826235093694,2.1345826235093694 0 0 1 2.1345826235093694,-2.1345826235093694
Z
"
transform="translate(323.236797274276 8), rotate(0)"
fill="white"
></path>
<path
d="
M2.1345826235093694,0
h0
a2.1345826235093694,2.1345826235093694 0 0 1 2.1345826235093694,2.1345826235093694
v21.86541737649063
a0,0 0 0 1 -0,0
h-4.269165247018739
a0,0 0 0 1 -0,-0
v-21.86541737649063
a2.1345826235093694,2.1345826235093694 0 0 1 2.1345826235093694,-2.1345826235093694
Z
"
transform="translate(329.335604770017 8), rotate(0)"
fill="white"
></path>
<path
d="
M2.1345826235093694,0
h0
a2.1345826235093694,2.1345826235093694 0 0 1 2.1345826235093694,2.1345826235093694
v21.86541737649063
a0,0 0 0 1 -0,0
h-4.269165247018739
a0,0 0 0 1 -0,-0
v-21.86541737649063
a2.1345826235093694,2.1345826235093694 0 0 1 2.1345826235093694,-2.1345826235093694
Z
"
transform="translate(335.43441226575806 8), rotate(0)"
fill="white"
></path>
<path
d="
M2.1345826235093694,0
h0
a2.1345826235093694,2.1345826235093694 0 0 1 2.1345826235093694,2.1345826235093694
v21.86541737649063
a0,0 0 0 1 -0,0
h-4.269165247018739
a0,0 0 0 1 -0,-0
v-21.86541737649063
a2.1345826235093694,2.1345826235093694 0 0 1 2.1345826235093694,-2.1345826235093694
Z
"
transform="translate(341.53321976149914 8), rotate(0)"
fill="white"
></path>
<path
d="
M2.1345826235093694,0
h0
a2.1345826235093694,2.1345826235093694 0 0 1 2.1345826235093694,2.1345826235093694
v21.86541737649063
a0,0 0 0 1 -0,0
h-4.269165247018739
a0,0 0 0 1 -0,-0
v-21.86541737649063
a2.1345826235093694,2.1345826235093694 0 0 1 2.1345826235093694,-2.1345826235093694
Z
"
transform="translate(347.6320272572402 8), rotate(0)"
fill="white"
></path>
<path
d="
M2.1345826235093694,0
h0
a2.1345826235093694,2.1345826235093694 0 0 1 2.1345826235093694,2.1345826235093694
v21.86541737649063
a0,0 0 0 1 -0,0
h-4.269165247018739
a0,0 0 0 1 -0,-0
v-21.86541737649063
a2.1345826235093694,2.1345826235093694 0 0 1 2.1345826235093694,-2.1345826235093694
Z
"
transform="translate(353.73083475298125 8), rotate(0)"
fill="white"
></path>
</g>
</mask>
<rect fill="url(#sparkbar-series-3)" width="358" height="32" mask="url(#sparkbar-series-clip-4)"></rect>
</svg>