<?xml version="1.0" standalone="no"?><!DOCTYPE svg PUBLIC "-//W3C//DTD SVG 1.1//EN" "http://www.w3.org/Graphics/SVG/1.1/DTD/svg11.dtd"><svg t="1685609300074" class="icon" viewBox="0 0 1587 1024" version="1.1" xmlns="http://www.w3.org/2000/svg" p-id="11124" xmlns:xlink="http://www.w3.org/1999/xlink" width="139.482421875" height="90"><path d="M417.055994 283.864518L224.7824 631.034528l363.333114-36.366984z" fill="#F1F1F1" p-id="11125"></path><path d="M415.372337 281.84413l327.302861 294.976653-155.906609 15.826373z" fill="#E7E9E9" p-id="11126"></path><path d="M150.028043 509.137784L33.855731 727.00296l239.415982-39.397567z" fill="#F1F1F1" p-id="11127"></path><path d="M149.017849 509.474515l225.946728 161.631042-102.703058 16.836567z" fill="#E7E9E9" p-id="11128"></path><path d="M782.746228 896.378823H361.158592V558.63729c0-115.83558 94.958237-210.793818 210.793818-210.793817 115.83558 0 210.793818 94.958237 210.793818 210.793817v337.741533z" fill="#FFFFFF" p-id="11129"></path><path d="M792.174705 513.852022l-1.683657-9.765208s4.714239-1.010194 13.132523-2.693851l2.020388 9.765209-13.469254 2.69385zM832.245734 505.433739l-2.020388-9.428478c8.755015-2.020388 17.846761-4.040776 26.601776-6.061164l2.357119 9.428478c-9.091746 2.357119-17.846761 4.377507-26.938507 6.061164z m53.203552-12.45906l-2.35712-9.428477c8.755015-2.357119 17.846761-4.377507 26.265045-6.734627l2.69385 9.428478c-8.755015 2.357119-17.51003 4.714239-26.601775 6.734626z m52.86682-14.142716l-2.693851-9.428477c8.755015-2.693851 17.51003-5.387701 25.928313-7.744821l3.030582 9.428477c-8.755015 2.357119-17.51003 5.05097-26.265044 7.744821z m51.856626-16.499835l-3.367313-9.091747c8.755015-3.030582 17.51003-6.397895 25.25485-9.428477l3.704045 9.091746c-7.744821 3.030582-16.499836 6.061164-25.591582 9.428478z m51.183163-20.540612l-4.040776-8.755015c8.755015-4.040776 16.836567-8.081552 23.907925-12.122328l5.05097 8.418283c-7.744821 4.040776-15.826373 8.418283-24.918119 12.45906z m47.479119-28.622164l-6.397895-7.408089c7.744821-6.397895 12.795791-12.795791 15.489641-19.193687l9.091746 3.704045c-3.030582 7.744821-9.091746 15.489642-18.183492 22.897731z m4.714239-43.775074c-5.05097-3.704045-12.795791-7.744821-22.897731-11.785597l3.704045-9.091746c11.112134 4.377507 19.530418 8.755015 25.25485 13.132522l-6.061164 7.744821z m-48.489313-20.540611c-7.744821-2.357119-16.499836-4.714239-25.928313-7.071359l2.357119-9.428477c9.765209 2.357119 18.520224 4.714239 26.601776 7.408089l-3.030582 9.091747z m-52.193357-13.132523c-8.418283-1.683657-17.173298-3.704045-26.601776-5.724432l2.020388-9.765209c9.428477 2.020388 18.520224 3.704045 26.601776 5.724433l-2.020388 9.765208zM939.3263 324.60901c-8.755015-1.683657-17.51003-3.367313-26.601776-4.714239l1.683657-9.765208c9.091746 1.683657 18.183492 3.367313 26.938507 5.05097l-2.020388 9.428477zM885.786017 315.180533c-8.755015-1.346925-17.846761-3.030582-26.938507-4.377508l1.683657-9.765208c9.091746 1.346925 18.183492 3.030582 26.938507 4.377507l-1.683657 9.765209z m-53.540283-8.418284c-8.755015-1.346925-17.846761-2.693851-26.938507-4.040776l1.346926-9.765209c9.091746 1.346925 18.183492 2.693851 26.938507 4.040776l-1.346926 9.765209z m-53.877014-8.081552c-9.091746-1.346925-17.846761-2.693851-26.938507-3.704045l1.346925-9.765208c9.091746 1.346925 18.183492 2.693851 26.938507 3.704044l-1.346925 9.765209z m-53.877014-7.408089c-9.091746-1.346925-17.846761-2.357119-26.938507-3.704045l1.346925-9.765209c9.091746 1.346925 17.846761 2.357119 26.938507 3.704045l-1.346925 9.765209z m-53.877014-7.40809c-9.091746-1.346925-17.846761-2.357119-26.938507-3.367313l1.346925-9.765209c9.091746 1.010194 17.846761 2.357119 26.938507 3.367313l-1.346925 9.765209z m-54.213746-6.734627c-9.091746-1.010194-18.183492-2.357119-26.938507-3.367313l1.346926-9.765209c9.091746 1.010194 17.846761 2.357119 26.938507 3.367314l-1.346926 9.765208z m-53.877014-7.071358l-26.938507-3.367313 1.346926-9.765209 26.938507 3.367314-1.346926 9.765208z m-54.213745-6.734626l-26.938507-3.367314 1.346925-9.765209 26.938507 3.367314-1.346925 9.765209z m-53.877014-6.734627c-9.091746-1.010194-18.183492-2.357119-26.938507-3.367314l1.346925-9.765208c8.755015 1.010194 17.846761 2.357119 26.938507 3.367313l-1.346925 9.765209z m-54.213746-6.734627c-9.428477-1.346925-18.183492-2.357119-26.938507-3.704045l1.346925-9.765208c8.755015 1.010194 17.846761 2.357119 26.938507 3.704044l-1.346925 9.765209z m-53.877014-7.408089c-5.05097-0.673463-10.438671-1.346925-15.15291-2.020388-4.714239-0.673463-9.091746-2.020388-12.795791-4.040776l4.714239-8.418284c2.693851 1.346925 6.061164 2.693851 9.765208 3.030582 4.714239 0.673463 9.765209 1.346925 15.152911 2.020388l-1.683657 9.428478zM316.710055 211.46728L308.291772 206.753042c3.030582-5.05097 7.744821-9.091746 14.479447-11.785597 3.367313-1.346925 7.071358-3.030582 10.438672-4.377507l3.704045 9.091746c-3.367313 1.346925-7.071358 3.030582-10.438672 4.377507-4.714239 1.683657-8.081552 4.377507-9.765209 7.408089z m45.122-22.224268l-3.367314-9.091746c8.418283-3.030582 16.836567-6.397895 25.591582-9.428477l3.367313 9.091746c-8.755015 3.367313-17.173298 6.397895-25.591581 9.428477z m51.183163-17.846761l-3.030582-9.428477c8.418283-2.693851 17.173298-5.387701 25.928313-8.081552l2.693851 9.428477c-8.418283 2.357119-17.173298 5.05097-25.591582 8.081552zM464.871844 155.569878l-2.693851-9.428477c8.418283-2.357119 17.51003-4.714239 26.265045-7.071358l2.357119 9.428477c-8.755015 2.357119-17.51003 4.714239-25.928313 7.071358z m52.530089-13.469253l-2.357119-9.428478c8.755015-2.020388 17.846761-4.040776 26.601775-6.061164l2.020388 9.428478c-8.755015 1.683657-17.51003 3.704045-26.265044 6.061164z m52.86682-11.785597l-2.020388-9.765209c8.755015-1.683657 17.846761-3.704045 26.601776-5.387701l1.683656 9.765209c-8.418283 1.683657-17.51003 3.367313-26.265044 5.387701z m53.203551-10.10194l-1.683656-9.765209c8.755015-1.683657 17.846761-3.030582 26.938507-4.377507l1.683657 9.765208c-9.091746 1.346925-18.183492 2.693851-26.938508 4.377508z m53.877015-8.755015l-1.346926-9.765209c8.755015-1.346925 17.846761-2.693851 26.938507-3.704045l1.346926 9.765209c-9.091746 1.010194-18.183492 2.357119-26.938507 3.704045z m53.540282-7.408089l-1.346925-9.765209c9.428477-1.010194 18.520224-2.357119 26.938507-3.030582l1.010194 9.765209c-8.081552 1.010194-17.173298 2.020388-26.601776 3.030582z m54.213746-5.724433l-1.010194-9.765209c9.765209-1.010194 18.856955-1.683657 27.275238-2.357119l1.010194 9.765208c-8.418283 0.673463-17.51003 1.346925-27.275238 2.35712zM838.306898 93.611312l-0.673462-9.765209 3.367313-0.336731c4.040776-0.336731 7.408089-0.673463 10.10194-0.673463l0.673463 9.765209c-3.030582 0.336731-6.397895 0.336731-10.10194 0.673463l-3.367314 0.336731z" fill="#D8DEE5" p-id="11130"></path><path d="M1267.302623 417.210128l-207.089773 212.814206 276.793161 63.305492z" fill="#F1F1F1" p-id="11131"></path><path d="M1266.292429 417.210128l177.794147 286.895101-108.09076-10.775403z" fill="#E7E9E9" p-id="11132"></path><path d="M1093.885984 614.534693s320.231503 63.642223 290.599145 124.927326c-29.295626 61.285104-200.691878 175.773759-264.670832 134.692535-34.009865-21.887537-25.928313-259.619862-25.928313-259.619861z" fill="#D8DEE5" p-id="11133"></path><path d="M1379.77089 738.788556c0 2.020388-0.336731 4.040776-0.673462 6.061164H1475.065859c-12.122328-57.581059-175.100296-108.09076-383.873726-135.365998l9.428478 27.275239c162.977968 24.918119 279.15028 55.223939 279.150279 102.029595z" fill="#BAC4D1" p-id="11134"></path><path d="M1101.294074 869.440316V681.544229c0-85.193029-69.703387-154.896416-154.896416-154.896416s-154.896416 69.703387-154.896416 154.896416v213.487668" fill="#FFFFFF" p-id="11135"></path><path d="M798.909332 895.368629h-14.816179V681.544229c0-89.570536 72.733969-162.304505 162.304505-162.304505s162.304505 72.733969 162.304505 162.304505v187.559355h-14.816179V681.544229c0-81.488984-66.336074-147.488326-147.488326-147.488326s-147.488326 66.336074-147.488326 147.488326v213.8244z" fill="#B0C2D9" p-id="11136"></path><path d="M343.985294 612.177573s-296.323578 63.642223-267.027952 124.927327 200.691878 175.773759 264.670832 134.692535c34.346597-22.224268 2.357119-259.619862 2.35712-259.619862z" fill="#D8DEE5" p-id="11137"></path><path d="M115.681446 744.84972c-0.336731-2.020388-0.673463-4.040776-0.673462-6.061164 0-43.775074 93.274581-71.723775 239.07925-96.978625v-27.275238c-192.273594 27.948701-322.588622 75.42782-334.374219 130.315027h95.968431z" fill="#BAC4D1" p-id="11138"></path><path d="M798.909332 899.746136h-14.816179V562.678066c0-116.509043-94.958237-211.46728-211.467281-211.46728S361.158592 445.832292 361.158592 562.678066v211.13055h-14.816179v-211.13055c0-124.590595 101.356133-226.283459 226.283459-226.283459 124.590595 0 226.283459 101.356133 226.28346 226.283459v337.06807z" fill="#B0C2D9" p-id="11139"></path><path d="M231.517027 384.210457m-29.295627 0a29.295626 29.295626 0 1 0 58.591253 0 29.295626 29.295626 0 1 0-58.591253 0Z" fill="#E7E9E9" p-id="11140"></path><path d="M452.076053 26.265044m-21.887537 0a21.887537 21.887537 0 1 0 43.775074 0 21.887537 21.887537 0 1 0-43.775074 0Z" fill="#E7E9E9" p-id="11141"></path><path d="M1091.528865 183.181848m-24.581388 0a24.581388 24.581388 0 1 0 49.162776 0 24.581388 24.581388 0 1 0-49.162776 0Z" fill="#E7E9E9" p-id="11142"></path><path d="M1093.885984 886.950345h-31.989477v-209.110161c0-55.897402-35.693522-137.386386-98.325551-140.416968 75.091088 3.030582 130.315028 69.029924 130.315028 140.416968V886.950345z" fill="#F6F6F6" p-id="11143"></path><path d="M575.656454 639.452812c-21.550806 0-39.397567-17.846761-39.397566-39.397567 0-21.550806 17.846761-39.397567 39.397566-39.397567 21.550806 0 39.397567 17.846761 39.397567 39.397567 0 21.887537-17.846761 39.397567-39.397567 39.397567z" fill="#B0C2D9" p-id="11144"></path><path d="M784.766616 883.919763h-48.826044v-319.221309c0-85.193029-54.550477-209.783624-149.845446-214.161131 114.825386 4.714239 199.008221 105.396909 199.008221 214.161131v319.221309z" fill="#F6F6F6" p-id="11145"></path><path d="M346.679144 597.361394c-201.702072 31.652746-327.639592 87.550148-327.639592 150.518909 0 98.325551 326.292667 178.130878 728.686616 178.130878s728.686616-79.805327 728.686617-178.130878c0-65.999342-176.11049-124.590595-394.649129-155.233147l9.765209 17.173298c162.641236 26.938507 288.578757 72.397238 288.578757 122.906938 0 82.499178-283.191056 149.508714-632.381454 149.508715s-632.381453-67.009536-632.381453-149.508715c0-47.479119 85.866491-88.223611 231.671161-115.498849" fill="#F6F6F6" p-id="11146"></path><path d="M792.511436 86.539954m-86.539954 0a86.539954 86.539954 0 1 0 173.079908 0 86.539954 86.539954 0 1 0-173.079908 0Z" fill="#FF6B71" p-id="11147"></path><path d="M360.148398 587.596185h-13.469254v290.935877c0 22.561-17.173298 41.081223-38.050641 41.081223s-38.050641-18.520224-38.050641-41.081223V768.084183c0-31.652746-23.571194-57.244328-52.530089-57.244328s-52.530089 25.591582-52.530089 57.244328v23.234462h1.346926l13.469253 7.40809v-30.305821c0-22.561 17.173298-41.081223 38.050641-41.081223S255.761683 745.523183 255.761683 768.084183V878.532062c0 31.652746 23.571194 57.244328 52.530089 57.244327s52.530089-25.591582 52.530089-57.244327v-241.773101s-0.336731-49.162775-0.673463-49.162776zM1275.384176 815.563302v-47.479119c0-22.561-17.173298-41.081223-38.050642-41.081223-20.877343 0-38.050641 18.520224-38.050641 41.081223V878.532062c0 31.652746-23.571194 57.244328-52.530089 57.244327s-52.530089-25.591582-52.530088-57.244327v-241.773101c0.336731 0 0.673463 80.815521 1.346925 80.815521h13.469253v160.95758c0 22.561 17.173298 41.081223 38.050642 41.081223 20.877343 0 38.050641-18.520224 38.050641-41.081223V768.084183c0-31.652746 23.571194-57.244328 52.530089-57.244328s52.530089 25.591582 52.530088 57.244328v42.428148M952.795553 874.491286v-18.183493c0-22.561-15.826373-41.081223-35.020059-41.081223s-35.020059 18.520224-35.020059 41.081223V966.755672c0 31.652746-21.887537 57.244328-48.826044 57.244328s-48.826044-25.591582-48.826044-57.244328v-160.957579h13.469253v160.957579c0 22.561 15.826373 41.081223 35.02006 41.081224s35.020059-18.520224 35.020059-41.081224V856.307793c0-31.652746 21.887537-57.244328 48.826044-57.244327s48.826044 25.591582 48.826044 57.244327v18.183493" fill="#B0C2D9" p-id="11148"></path><path d="M1092.87579 380.843144m-62.295297 0a62.295298 62.295298 0 1 0 124.590595 0 62.295298 62.295298 0 1 0-124.590595 0Z" fill="#B0C2D9" p-id="11149"></path><path d="M1076.375955 362.32292c1.010194 2.693851 1.346925 5.724433 3.030582 7.744821 2.357119 3.030582 5.387701 5.724433 8.755014 7.744821 5.05097 3.704045 8.418283 8.081552 9.091747 14.142716 0.336731 3.030582 0.673463 6.061164 1.683656 8.755015 2.693851 8.418283 11.785597 12.45906 19.530418 9.091746 8.081552-3.367313 11.448866-12.795791 7.071358-20.20388-7.408089-12.122328-14.816179-24.244656-22.561-36.030254-3.367313-5.05097-10.438671-7.071358-15.826373-5.05097-6.061164 2.357119-10.10194 7.408089-10.775402 13.805985zM1084.457507 397.679711c0 7.071358-6.061164 13.469254-13.132522 13.469253-7.071358 0-13.469254-6.061164-13.469254-13.132522 0-7.408089 5.724433-13.469254 13.132522-13.469254 7.071358 0 13.469254 6.061164 13.469254 13.132523zM757.828108 44.785268l-6.734626 5.724433c12.122328 9.091746 23.571194 19.530418 33.673134 29.969089-15.15291 15.489642-27.275238 30.642552-33.673134 36.703716l13.132522 10.775403c4.714239-9.428477 14.816179-23.907925 28.285432-39.397567 13.469254 15.15291 23.571194 29.969089 28.285433 39.397567 0 0 12.795791-13.469254 13.805985-11.448866-5.05097-5.387701-16.836567-21.550806-32.999672-38.050641 9.091746-9.428477 19.530418-18.856955 30.642552-26.938507l-3.030582-5.724433c-12.45906 6.061164-24.244656 15.489642-35.020059 25.25485-11.112134-9.428477-23.571194-19.193686-36.366985-26.265044z m0 0" fill="#FFFFFF" p-id="11150"></path><path d="M470.933008 487.923709c2.693851-2.693851 6.734627-2.693851 9.428478 0l41.417954 41.417955c2.693851 2.693851 2.693851 6.734627 0 9.428477-2.693851 2.693851-6.734627 2.693851-9.428477 0l-41.417955-41.417954c-2.357119-2.693851-2.357119-7.071358 0-9.428478z" fill="#B0C2D9" p-id="11151"></path><path d="M470.933008 538.43341c-2.693851-2.693851-2.693851-6.734627 0-9.428477l41.417955-41.417955c2.693851-2.693851 6.734627-2.693851 9.428477 0 2.693851 2.693851 2.693851 6.734627 0 9.428477l-41.417954 41.417955c-2.693851 2.693851-6.734627 2.693851-9.428478 0zM875.010614 616.218349c2.020388-2.020388 5.724433-2.020388 7.744821 0l34.683328 34.683328c2.020388 2.020388 2.020388 5.724433 0 7.744821-2.020388 2.020388-5.724433 2.020388-7.744821 0l-34.683328-34.683328c-2.357119-2.020388-2.357119-5.387701 0-7.744821z" fill="#B0C2D9" p-id="11152"></path><path d="M875.010614 658.983229c-2.020388-2.020388-2.020388-5.724433 0-7.744821l34.683328-34.683327c2.020388-2.020388 5.724433-2.020388 7.744821 0 2.020388 2.020388 2.020388 5.724433 0 7.74482l-34.683328 34.683328c-2.020388 2.020388-5.724433 2.020388-7.744821 0zM970.642314 616.218349c2.020388-2.020388 5.724433-2.020388 7.744821 0l34.683328 34.683328c2.020388 2.020388 2.020388 5.724433 0 7.744821-2.020388 2.020388-5.724433 2.020388-7.744821 0l-34.683328-34.683328c-2.357119-2.020388-2.357119-5.387701 0-7.744821z" fill="#B0C2D9" p-id="11153"></path><path d="M970.642314 658.983229c-2.020388-2.020388-2.020388-5.724433 0-7.744821l34.683328-34.683327c2.020388-2.020388 5.724433-2.020388 7.744821 0 2.020388 2.020388 2.020388 5.724433 0 7.74482l-34.683328 34.683328c-2.020388 2.020388-5.724433 2.020388-7.744821 0zM620.441722 487.923709c2.693851-2.693851 6.734627-2.693851 9.428478 0l41.417955 41.417955c2.693851 2.693851 2.693851 6.734627 0 9.428477-2.693851 2.693851-6.734627 2.693851-9.428478 0l-41.417955-41.417954c-2.357119-2.693851-2.357119-7.071358 0-9.428478z" fill="#B0C2D9" p-id="11154"></path><path d="M620.441722 538.43341c-2.693851-2.693851-2.693851-6.734627 0-9.428477l41.417955-41.417955c2.693851-2.693851 6.734627-2.693851 9.428478 0 2.693851 2.693851 2.693851 6.734627 0 9.428477L629.8702 538.43341c-2.693851 2.693851-6.734627 2.693851-9.428478 0z" fill="#B0C2D9" p-id="11155"></path></svg>