<svg width="875" height="200" viewBox="0 0 875 200" fill="none" xmlns="http://www.w3.org/2000/svg">
<rect width="875" height="200" fill="black"/>
<ellipse cx="100" cy="131.25" rx="68.75" ry="18.75" fill="#2D047D"/>
<path fill-rule="evenodd" clip-rule="evenodd" d="M168.287 133.437C164.316 142.762 135.257 150 99.9998 150C64.7425 150 35.684 142.762 31.7124 133.437L36.5383 156.25H36.5385C36.5385 166.605 64.9512 175 100 175C135.049 175 163.462 166.605 163.461 156.25L163.462 156.249L168.287 133.437Z" fill="url(#paint0_linear_101_7660)"/>
<ellipse cx="100" cy="131.25" rx="37.0192" ry="6.25" fill="url(#paint1_linear_101_7660)"/>
<ellipse cx="100" cy="87.5" rx="75" ry="18.75" fill="#440FAE"/>
<path fill-rule="evenodd" clip-rule="evenodd" d="M174.677 89.2539C171.139 98.7869 139.056 106.25 100 106.25C60.9446 106.25 28.8614 98.7869 25.3241 89.2539L30.7695 118.75H30.7697C30.7697 129.105 61.7653 137.5 100 137.5C138.236 137.5 169.231 129.105 169.231 118.75L174.677 89.2539Z" fill="url(#paint2_linear_101_7660)"/>
<ellipse cx="100" cy="87.5" rx="40.3846" ry="6.25" fill="url(#paint3_linear_101_7660)"/>
<ellipse cx="100" cy="37.5" rx="81.25" ry="18.75" fill="#591BD2"/>
<path fill-rule="evenodd" clip-rule="evenodd" d="M181.006 38.9639C177.77 48.635 142.738 56.25 100 56.25C57.2616 56.25 22.2303 48.635 18.994 38.9639L25 75C25 85.3553 58.5786 93.75 100 93.75C141.421 93.75 175 85.3553 175 75L181.006 38.9639Z" fill="url(#paint4_linear_101_7660)"/>
<ellipse cx="100" cy="37.5" rx="43.75" ry="6.25" fill="url(#paint5_linear_101_7660)"/>
<path d="M731.071 95.2157C737.037 88.5299 745.309 85.2501 755.75 85.2501C767.276 85.2501 776.09 88.7822 782.193 96.0987C787.752 102.658 790.6 111.867 790.6 123.599H743.928L743.928 112.75H774.463C773.107 102.154 767.005 96.9818 756.157 96.9818C751.004 96.9818 747.072 98.2432 744.088 101.018C744.088 101.018 737.475 106.25 737.475 118.75C737.475 131.201 740.404 134.297 743.375 137.437L743.411 137.475C746.394 140.629 750.733 142.268 756.293 142.268C761.039 142.268 764.836 141.259 767.819 139.241C770.124 137.601 772.158 134.952 774.056 131.294H789.515C787.888 137.349 784.633 142.521 779.752 146.557C773.514 151.477 765.785 154 756.428 154C745.987 154 737.715 150.973 731.613 145.044C725.104 138.862 721.85 130.411 721.85 119.562C721.85 109.849 724.833 101.775 731.071 95.2157Z" fill="white"/>
<path d="M559.15 54.0001H542.05V82.7002H528.1V96.8002H542.05V134.35C542.05 140.65 543.55 145.3 546.55 148.6C549.7 152.2 554.65 154 561.4 154H574.45V135.55C574.45 135.55 566.05 139.9 564.25 139.9C562.45 139.9 561.25 139.45 560.35 138.55C559.45 137.5 559.15 136.15 559.15 134.35V96.8002H576.4V82.7002H559.15V54.0001Z" fill="white"/>
<path d="M824.975 118.75L800.199 85.1501H819.399L834.35 106.25L846.849 85.1501H866.499L842.825 118.75L868.599 154H846.85L834.5 129.5L821.162 154H798.549L824.975 118.75Z" fill="white"/>
<path d="M688.928 43.75H704.978V154H688.928V43.75Z" fill="white"/>
<path d="M467.98 85.15H452.08V154H468.28V119.8C468.28 115.1 469.28 111 471.28 107.5C473.28 104 478.1 100 487.475 100C493.725 100 496.81 101.804 499.975 106.25C501.28 109.375 501.28 112.6 501.28 121.3V154H517.48V120.85C517.48 112.35 516.83 105.45 515.53 100.15C514.23 94.85 511.68 90.75 507.88 87.85C505.7 86.1868 501.28 82.3242 488.23 82.8125C475.18 83.3008 468.13 91.5 468.13 91.5L467.98 85.15Z" fill="white"/>
<path d="M398.78 155.5C391.68 155.5 385.38 153.9 379.88 150.7C374.38 147.5 370.13 143.15 367.13 137.65C364.13 132.15 362.63 126.05 362.63 119.35C362.63 112.75 364.08 106.7 366.98 101.2C369.98 95.7 374.23 91.35 379.73 88.15C385.23 84.95 391.58 83.35 398.78 83.35C405.98 83.35 412.28 84.95 417.68 88.15C423.18 91.35 427.38 95.7 430.28 101.2C433.28 106.7 434.78 112.75 434.78 119.35C434.78 126.05 433.28 132.15 430.28 137.65C427.28 143.15 423.03 147.5 417.53 150.7C412.13 153.9 405.88 155.5 398.78 155.5ZM399.23 142.3C405.03 142.3 409.58 140.15 412.88 135.85C416.28 131.55 417.98 126.15 417.98 119.65C417.98 113.15 416.18 107.7 412.58 103.3C408.98 98.8 404.23 96.55 398.33 96.55C392.63 96.55 388.03 98.75 384.53 103.15C381.13 107.55 379.43 113.05 379.43 119.65C379.43 126.05 381.28 131.45 384.98 135.85C388.68 140.15 393.43 142.3 399.23 142.3Z" fill="white"/>
<path d="M255 86.95L261.9 102.55L282.2 154H295.6L316.05 102.55L322.05 86.95L330.2 154H352.95L329.25 43.75H321.35L288.9 117L255.85 43.75H247.8L225 154H254.15L255 86.95Z" fill="white"/>
<path fill-rule="evenodd" clip-rule="evenodd" d="M596.326 85.15H611.926V91.65C618.725 84.375 626.026 83.35 637.726 83.35C649.426 83.35 657.424 88.6 662.475 93.75C668.475 99.85 670.276 109.375 670.276 119.2C670.276 126.4 668.776 132.75 665.776 138.25C662.876 143.75 658.876 148 653.776 151C648.776 154 643.752 155.038 636.976 155.5C626.975 156.182 611.926 149.9 611.926 149.9L612.076 190.45H596.326V85.15ZM634.35 137.5C644.705 137.5 653.1 129.105 653.1 118.75C653.1 108.395 644.705 100 634.35 100C623.995 100 615.6 108.395 615.6 118.75C615.6 129.105 623.995 137.5 634.35 137.5Z" fill="white"/>
<defs>
<linearGradient id="paint0_linear_101_7660" x1="99.9998" y1="133.437" x2="99.9998" y2="175" gradientUnits="userSpaceOnUse">
<stop stop-color="#642DFF"/>
<stop offset="1" stop-color="#892DFF"/>
</linearGradient>
<linearGradient id="paint1_linear_101_7660" x1="100" y1="125" x2="100" y2="137.5" gradientUnits="userSpaceOnUse">
<stop stop-color="#030318"/>
<stop offset="1" stop-color="#401499"/>
</linearGradient>
<linearGradient id="paint2_linear_101_7660" x1="100" y1="89.2539" x2="100" y2="137.5" gradientUnits="userSpaceOnUse">
<stop stop-color="#642DFF"/>
<stop offset="1" stop-color="#892DFF"/>
</linearGradient>
<linearGradient id="paint3_linear_101_7660" x1="100" y1="81.25" x2="100" y2="93.75" gradientUnits="userSpaceOnUse">
<stop stop-color="#030318"/>
<stop offset="1" stop-color="#401499"/>
</linearGradient>
<linearGradient id="paint4_linear_101_7660" x1="100" y1="38.9639" x2="100" y2="93.75" gradientUnits="userSpaceOnUse">
<stop stop-color="#642DFF"/>
<stop offset="1" stop-color="#892DFF"/>
</linearGradient>
<linearGradient id="paint5_linear_101_7660" x1="100" y1="31.25" x2="100" y2="43.75" gradientUnits="userSpaceOnUse">
<stop stop-color="#030318"/>
<stop offset="1" stop-color="#401499"/>
</linearGradient>
</defs>
</svg>
