<svg width="24" height="24" viewBox="0 0 24 24" fill="none" xmlns="http://www.w3.org/2000/svg">
<path fill-rule="evenodd" clip-rule="evenodd" d="M12 1.5C17.799 1.5 22.5 6.20101 22.5 12C22.5 17.799 17.799 22.5 12 22.5C6.20101 22.5 1.5 17.799 1.5 12C1.5 6.20101 6.20101 1.5 12 1.5Z" fill="url(#paint0_linear_133_10671)"/>
<path fill-rule="evenodd" clip-rule="evenodd" d="M16.7197 8.89307L10.6459 14.9669L7.28033 11.6014C6.98744 11.3085 6.51256 11.3085 6.21967 11.6014C5.92678 11.8943 5.92678 12.3691 6.21967 12.662L10.1155 16.5579C10.4084 16.8508 10.8833 16.8508 11.1762 16.5579L17.7803 9.95373C18.0732 9.66084 18.0732 9.18596 17.7803 8.89307C17.4874 8.60018 17.0126 8.60018 16.7197 8.89307Z" fill="white"/>
<defs>
<linearGradient id="paint0_linear_133_10671" x1="12" y1="1.5" x2="12" y2="22.5" gradientUnits="userSpaceOnUse">
<stop stop-color="#642DFF"/>
<stop offset="1" stop-color="#892DFF"/>
</linearGradient>
</defs>
</svg>
