<svg width="20" height="20" viewBox="0 0 20 20" fill="none" xmlns="http://www.w3.org/2000/svg">
    
      <path
        d="M10.0001 1.6665C5.40008 1.6665 1.66675 5.39984 1.66675 9.99984C1.66675 14.5998 5.40008 18.3332 10.0001 18.3332C14.6001 18.3332 18.3334 14.5998 18.3334 9.99984C18.3334 5.39984 14.6001 1.6665 10.0001 1.6665ZM7.74175 13.5748L4.75008 10.5832C4.42508 10.2582 4.42508 9.73317 4.75008 9.40817C5.07508 9.08317 5.60008 9.08317 5.92508 9.40817L8.33342 11.8082L14.0667 6.07484C14.3917 5.74984 14.9167 5.74984 15.2417 6.07484C15.5667 6.39984 15.5667 6.92484 15.2417 7.24984L8.91675 13.5748C8.60008 13.8998 8.06675 13.8998 7.74175 13.5748Z"
        fill="url(#grad1)"
      />
    
    <linearGradient id="grad1" 
      x1="50" y1="2" x2="47" y2="100" 
      gradientUnits="userSpaceOnUse">
      <stop stop-color="#F926E1" />
      <stop offset="0.3" stop-color="#2AB5FB" />
    </linearGradient>
  </svg>

