<?xml version="1.0" standalone="no"?><!DOCTYPE svg PUBLIC "-//W3C//DTD SVG 1.1//EN" "http://www.w3.org/Graphics/SVG/1.1/DTD/svg11.dtd"><svg class="icon" width="90px" height="45.00px" viewBox="0 0 2048 1024" version="1.1" xmlns="http://www.w3.org/2000/svg"><path d="M1788.100608 968.704h169.90208L1792.466944 138.092544z" fill="#E1EAFF" /><path d="M1744.052224 972.791808h-71.696384a4.096 4.096 0 0 1 0-8.192h71.696384c22.028288 0 39.952384-18.464768 39.952384-41.156608V188.776448c0-22.69184-17.924096-41.156608-39.952384-41.156608H785.69472c-22.03648 0-39.952384 18.464768-39.952384 41.156608v734.65856c0 22.69184 17.924096 41.1648 39.952384 41.1648h533.274624a4.096 4.096 0 1 1 0 8.192H785.69472c-26.550272 0-48.144384-22.134784-48.144384-49.348608V188.776448c0-27.213824 21.594112-49.348608 48.144384-49.348608h958.357504c26.54208 0 48.144384 22.134784 48.144384 49.348608v734.65856c0 27.222016-21.602304 49.3568-48.144384 49.3568" fill="#3370FF" /><path d="M951.558144 878.108672H815.202304a20.938752 20.938752 0 0 1-20.93056-20.938752V304.930816a20.922368 20.922368 0 0 1 20.93056-20.914176h136.35584a20.922368 20.922368 0 0 1 20.93056 20.914176v552.239104a20.938752 20.938752 0 0 1-20.93056 20.938752M1652.736 878.108672h-605.331456a19.628032 19.628032 0 0 1-19.628032-19.628032v-554.84416a19.61984 19.61984 0 0 1 19.628032-19.61984h605.323264a19.61984 19.61984 0 0 1 19.628032 19.61984v554.84416a19.628032 19.628032 0 0 1-19.628032 19.628032" fill="#BACEFD" /><path d="M787.456 76.26752a27.123712 27.123712 0 1 1-54.255616 0 27.123712 27.123712 0 0 1 54.255616 0" fill="#F54A45" /><path d="M871.809024 76.26752a27.123712 27.123712 0 1 1-54.255616 0 27.123712 27.123712 0 0 1 54.255616 0" fill="#FFC60A" /><path d="M956.17024 76.26752a27.11552 27.11552 0 1 1-54.255616 0 27.131904 27.131904 0 0 1 54.255616 0" fill="#34C724" /><path d="M930.234368 394.77248h-95.535104a4.096 4.096 0 0 1 0-8.192h95.535104a4.096 4.096 0 0 1 0 8.192M930.234368 434.569216h-95.535104a4.096 4.096 0 0 1 0-8.192h95.535104a4.096 4.096 0 0 1 0 8.192M883.376128 474.365952h-48.676864a4.096 4.096 0 0 1 0-8.192h48.676864a4.096 4.096 0 0 1 0 8.192" fill="#FFFFFF" /><path d="M1792.458752 211.894272H737.222656v-51.920896a21.87264 21.87264 0 0 1 21.856256-21.87264h1011.515392a21.87264 21.87264 0 0 1 21.864448 21.87264v51.920896z" fill="#82A7FC" /><path d="M720.551936 323.190784l-10.36288 64.200704s33.161216 5.210112 43.008-32.104448c9.854976-37.306368-32.64512-32.096256-32.64512-32.096256" fill="#FFEACF" /><path d="M724.074496 327.0656l-9.117696 56.500224c8.470528-0.106496 27.426816-3.35872 34.28352-29.32736 2.359296-8.92928 1.605632-15.712256-2.244608-20.135936-5.81632-6.692864-17.44896-7.225344-22.921216-7.04512m-10.07616 64.63488c-2.695168 0-4.366336-0.24576-4.440064-0.253952a4.120576 4.120576 0 0 1-3.407872-4.702208l10.354688-64.200704a4.096 4.096 0 0 1 3.547136-3.407872c0.917504-0.114688 22.478848-2.605056 33.103872 9.576448 5.750784 6.602752 7.102464 15.89248 4.01408 27.631616-8.43776 31.932416-33.038336 35.356672-43.17184 35.356672" fill="#3370FF" /><path d="M555.409408 323.059712s-34.4064-15.794176-31.9488 27.680768c2.473984 43.474944 46.383104 32.48128 46.383104 32.48128l-14.434304-60.162048z" fill="#FFEACF" /><path d="M542.43328 324.345856c-2.78528 0-5.685248 0.557056-8.101888 2.220032-6.47168 4.431872-7.258112 15.466496-6.774784 23.937024 0.638976 11.239424 4.3008 19.41504 10.89536 24.281088 8.585216 6.324224 20.299776 5.922816 26.386432 5.144576l-12.918784-53.82144a29.884416 29.884416 0 0 0-9.486336-1.76128m15.794176 64.22528c-7.405568 0-16.7936-1.425408-24.592384-7.168-8.675328-6.381568-13.47584-16.621568-14.25408-30.43328-0.876544-15.40096 2.605056-25.903104 10.354688-31.186944 11.30496-7.70048 26.722304-0.73728 27.377664-0.45056 1.14688 0.53248 1.982464 1.55648 2.277376 2.768896l14.434304 60.162048a4.096 4.096 0 0 1-2.99008 4.923392 55.738368 55.738368 0 0 1-12.607488 1.376256" fill="#3370FF" /><path d="M1007.067136 745.0624s53.649408 51.470336 81.502208 103.038976c27.500544 50.905088-86.147072 120.602624-86.147072 120.602624h-217.66144l88.416256-82.763776-23.109632-24.363008 156.99968-116.523008z" fill="#FEEAD2" /><path d="M795.131904 964.599808h206.11072c10.81344-6.856704 107.790336-70.00064 83.72224-114.548736-23.855104-44.15488-67.477504-88.8832-78.27456-99.622912l-150.470656 111.681536 19.931136 21.020672a4.096 4.096 0 0 1-0.16384 5.808128l-80.85504 75.661312z m207.290368 8.192h-217.66144a4.096 4.096 0 0 1-2.801664-7.08608l85.409792-79.937536-20.2752-21.38112a4.063232 4.063232 0 0 1-1.10592-3.162112 4.05504 4.05504 0 0 1 1.6384-2.94912l156.99968-116.506624a4.05504 4.05504 0 0 1 5.275648 0.32768c0.540672 0.516096 54.43584 52.527104 82.264064 104.062976 29.016064 53.69856-82.82112 123.092992-87.605248 126.025728a4.038656 4.038656 0 0 1-2.12992 0.606208z" fill="#126DFF" /><path d="M202.203136 727.588864c-28.540928 18.808832-81.215488 84.033536-112.861184 125.632512-26.29632 34.57024 111.869952 115.482624 111.869952 115.482624h98.95936V794.427392l-97.968128-66.838528z" fill="#FEEAD2" /><path d="M202.3424 964.608h93.71648V796.59008l-93.847552-64.036864c-32.219136 22.962176-91.783168 99.721216-109.60896 123.142144-2.29376 3.014656-2.99008 6.569984-2.138112 10.870784 6.823936 34.48832 101.326848 91.742208 111.878144 98.041856m97.81248 8.192H201.228288a4.096 4.096 0 0 1-2.072576-0.557056c-4.440064-2.605056-108.814336-64.14336-116.719616-104.07936-1.31072-6.643712-0.08192-12.509184 3.661824-17.424384 23.63392-31.072256 82.059264-105.619456 113.860608-126.574592a4.128768 4.128768 0 0 1 4.562944 0.04096l97.959936 66.838528a4.096 4.096 0 0 1 1.785856 3.391488v174.268416a4.096 4.096 0 0 1-4.096 4.096" fill="#126DFF" /><path d="M475.070464 203.24352h-0.16384l-83.27168-3.293184a4.096 4.096 0 0 1-3.93216-4.25984c0.090112-2.2528 2.269184-3.989504 4.25984-3.93216l83.263488 3.293184a4.096 4.096 0 0 1-0.155648 8.192M507.641856 141.090816a4.079616 4.079616 0 0 1-2.973696-1.277952l-56.532992-59.654144a4.096 4.096 0 0 1 5.9392-5.636096l56.541184 59.654144a4.096 4.096 0 0 1-2.973696 6.914048M490.33216 171.073536a4.01408 4.01408 0 0 1-0.925696-0.106496l-44.81024-10.32192a4.096 4.096 0 1 1 1.835008-7.979008l44.81024 10.32192a4.096 4.096 0 0 1-0.909312 8.085504" fill="#3370FF" /><path d="M651.526144 242.884608s-93.585408-2.41664-98.5088 68.501504c-4.923392 70.926336 29.556736 144.990208 29.556736 144.990208s-12.312576 78.610432-76.34944 98.320384c-64.028672 19.693568 98.5088 98.500608 174.850048 0 0 0-36.937728-36.94592-22.15936-91.127808 0 0 58.40896-13.9264 59.400192-65.323008 1.441792-74.21952 26.78784-156.8768-66.789376-155.36128" fill="#FEEAD2" /><path d="M650.559488 246.972416c-4.390912 0-24.7808 0.4096-45.30176 7.512064-30.040064 10.387456-46.235648 29.630464-48.152576 57.18016-4.79232 69.009408 28.83584 142.245888 29.179904 142.983168a4.096 4.096 0 0 1 0.32768 2.359296c-0.507904 3.309568-13.451264 81.371136-79.183872 101.605376-4.34176 1.335296-11.63264 4.25984-11.722752 8.871936-0.12288 5.971968 10.674176 15.876096 31.5392 23.26528 34.627584 12.230656 104.218624 18.137088 148.43904-35.88096-8.35584-9.715712-33.83296-44.335104-20.72576-92.372992a4.096 4.096 0 0 1 3.006464-2.90816c2.260992-0.548864 55.345152-13.860864 56.254464-61.423616 0.24576-12.812288 1.212416-25.92768 2.12992-38.608896 2.891776-39.40352 5.61152-76.603392-13.205504-96.518144-10.575872-11.190272-27.394048-16.433152-51.552256-16.05632h-0.172032l-0.86016-0.008192M577.642496 607.19104c-20.668416 0-39.469056-3.883008-53.12512-8.716288-23.052288-8.159232-37.23264-20.094976-36.995072-31.154176 0.106496-5.12 3.227648-12.148736 17.498112-16.54784 56.623104-17.424384 71.43424-84.1728 73.293824-93.88032-4.58752-10.174464-34.03776-78.700544-29.384704-145.793024 5.062656-72.916992 99.074048-72.37632 102.596608-72.310784 26.435584-0.360448 45.334528 5.668864 57.573376 18.620416 21.2992 22.544384 18.432 61.497344 15.425536 102.744064-0.917504 12.57472-1.867776 25.575424-2.113536 38.17472-0.917504 47.734784-48.709632 65.077248-60.12928 68.542464-12.402688 50.09408 21.34016 84.5824 21.692416 84.926464a4.112384 4.112384 0 0 1 0.32768 5.40672c-29.73696 38.37952-70.967296 49.987584-106.65984 49.987584" fill="#3370FF" /><path d="M288.227328 626.163712c-44.040192 25.894912-87.302144 58.425344-114.56512 95.96928l126.73024 139.42784 0.36864-137.904128c-0.442368 34.906112-0.589824 245.039104-0.589824 245.039104H806.33856l7.94624-243.769344-2.646016 102.11328 38.428672 34.521088 170.31168-120.832S852.525056 591.192064 816.7424 575.758336c-68.780032-29.696-309.100544-66.813952-439.435264 6.3488" fill="#3370FF" /><path d="M806.33856 972.8H300.171264a4.128768 4.128768 0 0 1-2.899968-1.196032 4.13696 4.13696 0 0 1-1.196032-2.899968c0-1.024 0.032768-50.798592 0.12288-105.644032L170.63936 724.877312a4.096 4.096 0 0 1-0.28672-5.16096c24.379392-33.562624 63.348736-66.23232 115.802112-97.0752a4.087808 4.087808 0 1 1 4.153344 7.04512c-50.069504 29.458432-87.515136 60.448768-111.345664 92.16L296.22272 850.90304c0.098304-54.4768 0.24576-110.764032 0.45056-127.287296 0.032768-2.2528 1.982464-4.161536 4.128768-4.038656a4.096 4.096 0 0 1 4.063232 4.096l-0.376832 137.91232a3.93216 3.93216 0 0 1-0.08192 0.8192c-0.08192 46.276608-0.12288 89.071616-0.131072 102.211584h498.106368l7.82336-239.812608a4.202496 4.202496 0 0 1 4.210688-3.964928 4.096 4.096 0 0 1 3.97312 4.202496l-2.596864 100.220928 34.586624 31.080448 163.4304-115.965952c-25.264128-22.372352-166.887424-147.12832-198.680576-160.841728-69.689344-30.089216-308.690944-65.183744-435.806208 6.160384a4.087808 4.087808 0 1 1-4.01408-7.135232c131.432448-73.785344 370.130944-38.027264 443.06432-6.5536 35.971072 15.532032 197.869568 159.547392 204.734464 165.675008a4.087808 4.087808 0 0 1-0.352256 6.38976l-170.31168 120.848384a4.096 4.096 0 0 1-5.103616-0.294912l-32.546816-29.24544-4.34176 133.472256a4.096 4.096 0 0 1-4.096 3.956736" fill="#FFFFFF" /><path d="M540.114944 251.625472c0.188416 3.547136-3.11296 159.318016 108.560384 131.465216 111.65696-27.8528 192.315392-220.626944 56.344576-215.12192-46.964736 1.908736-169.443328-1.409024-164.90496 83.656704" fill="#1E232A" /><path d="M710.688768 171.95008c-1.80224 0-3.629056 0.032768-5.496832 0.114688-3.52256 0.139264-7.45472 0.24576-11.730944 0.376832-39.387136 1.138688-105.30816 3.047424-134.701056 34.963456-10.600448 11.50976-15.491072 26.320896-14.548992 44.007424l0.016384 1.196032c0.131072 20.217856 3.416064 88.408064 40.22272 116.98176 16.384 12.6976 37.650432 15.917056 63.234048 9.527296 60.809216-15.163392 133.185536-98.811904 123.904-163.59424-4.104192-28.573696-25.116672-43.58144-60.899328-43.58144M623.468544 390.529024c-16.883712 0-31.62112-4.83328-44.032-14.45888-39.7312-30.834688-43.270144-102.252544-43.401216-123.404288l-0.008192-0.835584c-1.06496-19.972096 4.562944-36.78208 16.703488-49.9712 31.735808-34.44736 99.81952-36.421632 140.4928-37.60128 4.243456-0.114688 8.15104-0.229376 11.63264-0.36864 58.40896-2.392064 71.983104 30.613504 74.83392 50.487296 8.47872 59.129856-53.0432 153.501696-130.023424 172.703744-9.224192 2.29376-17.965056 3.44064-26.198016 3.44064" fill="#1E232A" /><path d="M507.478016 820.436992s9.715712 19.972096 29.843456 28.59008l0.188416 18.67776-29.466624 9.396224-0.565248-56.664064z m29.237248-32.309248c1.4336 17.6128 16.113664 31.358976 33.865728 31.186944 18.579456-0.196608 33.488896-15.5648 33.30048-34.340864-0.188416-18.776064-15.40096-33.83296-33.980416-33.652736a33.390592 33.390592 0 0 0-24.756224 11.354112l-0.352256-35.741696a62.390272 62.390272 0 0 1 24.813568-5.398528c34.85696-0.352256 63.397888 27.918336 63.750144 63.143936 0.352256 35.233792-27.623424 64.06144-62.480384 64.413696-33.890304 0.335872-61.80864-26.37824-63.65184-60.227584h-0.065536l-0.843776-84.721664 29.466624-9.371648 0.933888 93.356032z" fill="#FEF9EC" /><path d="M1350.074368 386.49856c-107.282432 0-194.568192 87.277568-194.568192 194.56 0 107.290624 87.28576 194.56 194.56 194.56 107.290624 0 194.56-87.269376 194.56-194.56 0-107.282432-87.269376-194.56-194.56-194.56m-167.698432 194.56c0-92.479488 75.227136-167.706624 167.706624-167.706624 39.89504 0 76.55424 14.024704 105.381888 37.371904l-235.954176 235.405312a166.87104 166.87104 0 0 1-37.134336-105.070592m167.706624 167.714816a166.969344 166.969344 0 0 1-106.725376-38.445056L1481.1136 476.577792a166.87104 166.87104 0 0 1 36.667392 104.480768c0 92.471296-75.235328 167.714816-167.706624 167.714816" fill="#FFFFFF" /></svg>